G04 #@! TF.GenerationSoftware,KiCad,Pcbnew,(5.1.5)-3*
G04 #@! TF.CreationDate,2020-02-16T17:15:14+02:00*
G04 #@! TF.ProjectId,flex_SpeedControl,666c6578-5f53-4706-9565-64436f6e7472,rev?*
G04 #@! TF.SameCoordinates,Original*
G04 #@! TF.FileFunction,Legend,Bot*
G04 #@! TF.FilePolarity,Positive*
%FSLAX46Y46*%
G04 Gerber Fmt 4.6, Leading zero omitted, Abs format (unit mm)*
G04 Created by KiCad (PCBNEW (5.1.5)-3) date 2020-02-16 17:15:14*
%MOMM*%
%LPD*%
G04 APERTURE LIST*
%ADD10C,0.150000*%
%ADD11C,0.120000*%
G04 APERTURE END LIST*
D10*
X125390476Y-130952380D02*
X125200000Y-130952380D01*
X125104761Y-131000000D01*
X125057142Y-131047619D01*
X124961904Y-131190476D01*
X124914285Y-131380952D01*
X124914285Y-131761904D01*
X124961904Y-131857142D01*
X125009523Y-131904761D01*
X125104761Y-131952380D01*
X125295238Y-131952380D01*
X125390476Y-131904761D01*
X125438095Y-131857142D01*
X125485714Y-131761904D01*
X125485714Y-131523809D01*
X125438095Y-131428571D01*
X125390476Y-131380952D01*
X125295238Y-131333333D01*
X125104761Y-131333333D01*
X125009523Y-131380952D01*
X124961904Y-131428571D01*
X124914285Y-131523809D01*
X125438095Y-124952380D02*
X124961904Y-124952380D01*
X124914285Y-125428571D01*
X124961904Y-125380952D01*
X125057142Y-125333333D01*
X125295238Y-125333333D01*
X125390476Y-125380952D01*
X125438095Y-125428571D01*
X125485714Y-125523809D01*
X125485714Y-125761904D01*
X125438095Y-125857142D01*
X125390476Y-125904761D01*
X125295238Y-125952380D01*
X125057142Y-125952380D01*
X124961904Y-125904761D01*
X124914285Y-125857142D01*
X121566666Y-123352380D02*
X122185714Y-123352380D01*
X121852380Y-123733333D01*
X121995238Y-123733333D01*
X122090476Y-123780952D01*
X122138095Y-123828571D01*
X122185714Y-123923809D01*
X122185714Y-124161904D01*
X122138095Y-124257142D01*
X122090476Y-124304761D01*
X121995238Y-124352380D01*
X121709523Y-124352380D01*
X121614285Y-124304761D01*
X121566666Y-124257142D01*
X118214285Y-131047619D02*
X118261904Y-131000000D01*
X118357142Y-130952380D01*
X118595238Y-130952380D01*
X118690476Y-131000000D01*
X118738095Y-131047619D01*
X118785714Y-131142857D01*
X118785714Y-131238095D01*
X118738095Y-131380952D01*
X118166666Y-131952380D01*
X118785714Y-131952380D01*
X118785714Y-125952380D02*
X118214285Y-125952380D01*
X118500000Y-125952380D02*
X118500000Y-124952380D01*
X118404761Y-125095238D01*
X118309523Y-125190476D01*
X118214285Y-125238095D01*
D11*
X118840000Y-126455000D02*
X118840000Y-130575000D01*
X124960000Y-126455000D02*
X124960000Y-130575000D01*
X119140000Y-125200000D02*
X119140000Y-126455000D01*
X118840000Y-126455000D02*
X119140000Y-126455000D01*
X118840000Y-130575000D02*
X119140000Y-130575000D01*
X124660000Y-126455000D02*
X124960000Y-126455000D01*
X124660000Y-130575000D02*
X124960000Y-130575000D01*
X120660000Y-126455000D02*
X121140000Y-126455000D01*
X120660000Y-130575000D02*
X121140000Y-130575000D01*
X122660000Y-126455000D02*
X123140000Y-126455000D01*
X122660000Y-130575000D02*
X123140000Y-130575000D01*
M02*
