G04 #@! TF.GenerationSoftware,KiCad,Pcbnew,(5.1.5)-3*
G04 #@! TF.CreationDate,2020-02-16T17:15:14+02:00*
G04 #@! TF.ProjectId,flex_SpeedControl,666c6578-5f53-4706-9565-64436f6e7472,rev?*
G04 #@! TF.SameCoordinates,Original*
G04 #@! TF.FileFunction,Copper,L1,Top*
G04 #@! TF.FilePolarity,Positive*
%FSLAX46Y46*%
G04 Gerber Fmt 4.6, Leading zero omitted, Abs format (unit mm)*
G04 Created by KiCad (PCBNEW (5.1.5)-3) date 2020-02-16 17:15:14*
%MOMM*%
%LPD*%
G04 APERTURE LIST*
%ADD10C,1.000000*%
%ADD11C,0.800000*%
%ADD12C,0.150000*%
%ADD13C,0.254000*%
G04 APERTURE END LIST*
D10*
X92500000Y-119400000D03*
X96200000Y-119400000D03*
X99900000Y-119400000D03*
X103700000Y-119400000D03*
X107300000Y-119400000D03*
X110700000Y-119400000D03*
D11*
X119900000Y-126500000D03*
X119900000Y-130600000D03*
X121900000Y-126500000D03*
X122600000Y-122600000D03*
X123900000Y-126500000D03*
X123900000Y-130600000D03*
D12*
X119900000Y-125934315D02*
X119900000Y-126500000D01*
X92500000Y-119400000D02*
X92500000Y-120107106D01*
X92500000Y-120107106D02*
X93167884Y-120774990D01*
X117893202Y-120774990D02*
X119900000Y-122781788D01*
X93167884Y-120774990D02*
X117893202Y-120774990D01*
X119900000Y-122781788D02*
X119900000Y-125934315D01*
X120550000Y-130600000D02*
X119900000Y-130600000D01*
X120600000Y-130550000D02*
X120550000Y-130600000D01*
X96200000Y-119400000D02*
X96200000Y-120107106D01*
X96200000Y-120107106D02*
X96617874Y-120524980D01*
X96617874Y-120524980D02*
X117996759Y-120524980D01*
X117996759Y-120524980D02*
X120600000Y-123128221D01*
X120600000Y-123128221D02*
X120600000Y-130550000D01*
X121900000Y-125934315D02*
X121900000Y-126500000D01*
X99900000Y-119400000D02*
X99900000Y-120107106D01*
X99900000Y-120107106D02*
X100067864Y-120274970D01*
X100067864Y-120274970D02*
X118100316Y-120274970D01*
X118100316Y-120274970D02*
X121900000Y-124074654D01*
X121900000Y-124074654D02*
X121900000Y-125934315D01*
X103700000Y-118692894D02*
X103700000Y-119400000D01*
X102400000Y-104800000D02*
X102400000Y-117392894D01*
X102400000Y-117392894D02*
X103700000Y-118692894D01*
X102974990Y-104225010D02*
X102400000Y-104800000D01*
X114825010Y-104225010D02*
X102974990Y-104225010D01*
X114825010Y-104225010D02*
X119000000Y-104225010D01*
X119500000Y-104700000D02*
X119025010Y-104225010D01*
X119025010Y-104225010D02*
X118500000Y-104225010D01*
X122600000Y-122600000D02*
X119500000Y-119500000D01*
X119500000Y-119500000D02*
X119500000Y-104700000D01*
X123900000Y-124800000D02*
X123900000Y-126500000D01*
X123900000Y-124751002D02*
X123900000Y-125934315D01*
X118875020Y-119726022D02*
X123900000Y-124751002D01*
X118875020Y-104875020D02*
X118875020Y-119726022D01*
X118475020Y-104475020D02*
X118875020Y-104875020D01*
X107300000Y-118692894D02*
X106000000Y-117392894D01*
X107300000Y-119400000D02*
X107300000Y-118692894D01*
X106000000Y-105000000D02*
X106524980Y-104475020D01*
X106000000Y-117392894D02*
X106000000Y-105000000D01*
X123900000Y-125934315D02*
X123900000Y-126500000D01*
X106524980Y-104475020D02*
X118475020Y-104475020D01*
X111407106Y-119400000D02*
X112032066Y-120024960D01*
X110700000Y-119400000D02*
X111407106Y-119400000D01*
X122900000Y-129600000D02*
X123900000Y-130600000D01*
X112032066Y-120024960D02*
X118424960Y-120024960D01*
X122900000Y-124500000D02*
X122900000Y-129600000D01*
X118424960Y-120024960D02*
X122900000Y-124500000D01*
D13*
G36*
X106874460Y-112480800D02*
G01*
X106873126Y-112505660D01*
X106874460Y-112519200D01*
X108014448Y-119972970D01*
X105271401Y-119972970D01*
X104128476Y-112500000D01*
X105347875Y-104527010D01*
X108090922Y-104527010D01*
X106874460Y-112480800D01*
G37*
X106874460Y-112480800D02*
X106873126Y-112505660D01*
X106874460Y-112519200D01*
X108014448Y-119972970D01*
X105271401Y-119972970D01*
X104128476Y-112500000D01*
X105347875Y-104527010D01*
X108090922Y-104527010D01*
X106874460Y-112480800D01*
G36*
X92051074Y-112480800D02*
G01*
X92049740Y-112505660D01*
X92051074Y-112519200D01*
X93305773Y-120723000D01*
X89927000Y-120723000D01*
X89927000Y-104277000D01*
X93305773Y-104277000D01*
X92051074Y-112480800D01*
G37*
X92051074Y-112480800D02*
X92049740Y-112505660D01*
X92051074Y-112519200D01*
X93305773Y-120723000D01*
X89927000Y-120723000D01*
X89927000Y-104277000D01*
X93305773Y-104277000D01*
X92051074Y-112480800D01*
G36*
X103274460Y-112480800D02*
G01*
X103273126Y-112505660D01*
X103274460Y-112519200D01*
X104414448Y-119972970D01*
X101671401Y-119972970D01*
X100528476Y-112500000D01*
X101786112Y-104277000D01*
X104529159Y-104277000D01*
X103274460Y-112480800D01*
G37*
X103274460Y-112480800D02*
X103273126Y-112505660D01*
X103274460Y-112519200D01*
X104414448Y-119972970D01*
X101671401Y-119972970D01*
X100528476Y-112500000D01*
X101786112Y-104277000D01*
X104529159Y-104277000D01*
X103274460Y-112480800D01*
G36*
X111272997Y-119972970D02*
G01*
X108971398Y-119972970D01*
X107828473Y-112500000D01*
X109009635Y-104777020D01*
X111272997Y-104777020D01*
X111272997Y-119972970D01*
G37*
X111272997Y-119972970D02*
X108971398Y-119972970D01*
X107828473Y-112500000D01*
X109009635Y-104777020D01*
X111272997Y-104777020D01*
X111272997Y-119972970D01*
G36*
X99474460Y-112480800D02*
G01*
X99473126Y-112505660D01*
X99474460Y-112519200D01*
X100652685Y-120222980D01*
X97909638Y-120222980D01*
X96728476Y-112500000D01*
X97986112Y-104277000D01*
X100729159Y-104277000D01*
X99474460Y-112480800D01*
G37*
X99474460Y-112480800D02*
X99473126Y-112505660D01*
X99474460Y-112519200D01*
X100652685Y-120222980D01*
X97909638Y-120222980D01*
X96728476Y-112500000D01*
X97986112Y-104277000D01*
X100729159Y-104277000D01*
X99474460Y-112480800D01*
G36*
X95774460Y-112480800D02*
G01*
X95773126Y-112505660D01*
X95774460Y-112519200D01*
X96990922Y-120472990D01*
X94247875Y-120472990D01*
X93028476Y-112500000D01*
X94286112Y-104277000D01*
X97029159Y-104277000D01*
X95774460Y-112480800D01*
G37*
X95774460Y-112480800D02*
X95773126Y-112505660D01*
X95774460Y-112519200D01*
X96990922Y-120472990D01*
X94247875Y-120472990D01*
X93028476Y-112500000D01*
X94286112Y-104277000D01*
X97029159Y-104277000D01*
X95774460Y-112480800D01*
M02*
