M48
; DRILL file {KiCad (5.1.5)-3} date 19/03/2020 10:51:48
; FORMAT={-:-/ absolute / inch / decimal}
; #@! TF.CreationDate,2020-03-19T10:51:48+02:00
; #@! TF.GenerationSoftware,Kicad,Pcbnew,(5.1.5)-3
; #@! TF.FileFunction,Plated,1,2,PTH
FMAT,2
INCH
T1C0.0157
T2C0.0236
T3C0.0394
%
G90
G05
T1
X1.62Y-4.32
X1.6437Y-4.8524
X1.6535Y-5.0492
X1.7224Y-4.5079
X1.7283Y-4.2126
X1.7492Y-5.5492
X1.75Y-5.5
X1.752Y-4.0157
X1.8366Y-4.438
X1.85Y-5.45
X1.86Y-4.29
X1.895Y-4.165
X1.9094Y-5.4626
X1.925Y-4.26
X1.9488Y-4.0453
X1.9862Y-4.4565
X2.01Y-4.21
X2.01Y-4.314
X2.0472Y-4.5472
X2.0472Y-4.7244
X2.0472Y-5.0394
X2.0866Y-5.7028
X2.125Y-3.755
X2.1358Y-4.7343
X2.1358Y-4.8425
X2.1358Y-5.0689
X2.1358Y-5.7028
X2.1523Y-4.5648
X2.16Y-5.965
X2.1693Y-3.9665
X2.1843Y-4.2311
X2.185Y-4.5866
X2.2074Y-4.263
X2.24Y-4.69
X2.2485Y-4.2623
X2.25Y-4.385
X2.2741Y-4.6353
X2.285Y-4.04
X2.311Y-4.2402
X2.313Y-4.6068
X2.3169Y-4.5374
X2.3248Y-4.3209
X2.325Y-3.975
X2.3307Y-4.0945
X2.3622Y-4.874
X2.3819Y-5.6201
X2.3937Y-5.1535
X2.4Y-4.155
X2.405Y-5.015
X2.4587Y-4.252
X2.47Y-4.475
X2.4823Y-4.2146
X2.4902Y-4.9213
X2.5Y-4.0551
X2.5Y-4.3652
X2.55Y-4.505
X2.5787Y-4.3322
X2.5842Y-4.5768
X2.605Y-5.975
X2.6102Y-4.7244
X2.624Y-4.8445
X2.66Y-4.335
X2.67Y-4.69
X2.6722Y-4.8051
X2.687Y-4.1634
X2.69Y-4.505
X2.7171Y-4.5465
X2.7215Y-4.8051
X2.7264Y-4.2323
X2.7264Y-5.2953
X2.7411Y-4.1683
X2.765Y-4.455
X2.7854Y-4.9409
X2.8Y-4.36
X2.8346Y-5.9843
X2.845Y-4.585
X2.8937Y-4.9508
X2.9124Y-4.3219
X2.9134Y-5.7677
X2.9331Y-4.7244
X2.9567Y-4.4429
X2.995Y-4.3361
X3.0118Y-4.872
X3.0413Y-4.3701
X3.0787Y-3.9941
X3.1299Y-5.1969
X3.1693Y-4.4783
X3.17Y-5.95
X3.2087Y-5.8366
X3.248Y-5.6201
X3.2677Y-5.0787
X3.2677Y-5.1181
X3.2697Y-4.0945
X3.2768Y-5.4429
X3.3169Y-4.7638
X3.3268Y-4.4783
X3.345Y-5.98
X3.376Y-3.9665
X3.4055Y-5.6594
X3.4055Y-5.7972
X3.4252Y-3.9665
X3.4449Y-4.8228
X3.4783Y-3.9055
X3.6791Y-4.0689
X3.7Y-5.5
X3.7008Y-5.5492
X3.7146Y-4.439
X3.865Y-4.94
T2
X2.6156Y-4.435
T3
X1.75Y-3.75
T0
M30
