G04 #@! TF.GenerationSoftware,KiCad,Pcbnew,(5.1.5)-3*
G04 #@! TF.CreationDate,2020-03-19T10:51:44+02:00*
G04 #@! TF.ProjectId,SeamlessVision,5365616d-6c65-4737-9356-6973696f6e2e,rev?*
G04 #@! TF.SameCoordinates,Original*
G04 #@! TF.FileFunction,Legend,Bot*
G04 #@! TF.FilePolarity,Positive*
%FSLAX46Y46*%
G04 Gerber Fmt 4.6, Leading zero omitted, Abs format (unit mm)*
G04 Created by KiCad (PCBNEW (5.1.5)-3) date 2020-03-19 10:51:44*
%MOMM*%
%LPD*%
G04 APERTURE LIST*
%ADD10C,0.150000*%
%ADD11C,0.300000*%
%ADD12C,0.250000*%
%ADD13C,0.120000*%
%ADD14C,0.200000*%
%ADD15C,0.254000*%
G04 APERTURE END LIST*
D10*
X92430952Y-113671428D02*
X91669047Y-113671428D01*
X92050000Y-114052380D02*
X92050000Y-113290476D01*
X45380952Y-104921428D02*
X44619047Y-104921428D01*
X45000000Y-105302380D02*
X45000000Y-104540476D01*
X45516666Y-137216666D02*
X45516666Y-136883333D01*
X45850000Y-136850000D01*
X45816666Y-136883333D01*
X45783333Y-136950000D01*
X45783333Y-137116666D01*
X45816666Y-137183333D01*
X45850000Y-137216666D01*
X45916666Y-137250000D01*
X46083333Y-137250000D01*
X46150000Y-137216666D01*
X46183333Y-137183333D01*
X46216666Y-137116666D01*
X46216666Y-136950000D01*
X46183333Y-136883333D01*
X46150000Y-136850000D01*
X45516666Y-137450000D02*
X46216666Y-137683333D01*
X45516666Y-137916666D01*
X45550000Y-139050000D02*
X45516666Y-138983333D01*
X45516666Y-138883333D01*
X45550000Y-138783333D01*
X45616666Y-138716666D01*
X45683333Y-138683333D01*
X45816666Y-138650000D01*
X45916666Y-138650000D01*
X46050000Y-138683333D01*
X46116666Y-138716666D01*
X46183333Y-138783333D01*
X46216666Y-138883333D01*
X46216666Y-138950000D01*
X46183333Y-139050000D01*
X46150000Y-139083333D01*
X45916666Y-139083333D01*
X45916666Y-138950000D01*
X46216666Y-139383333D02*
X45516666Y-139383333D01*
X46216666Y-139783333D01*
X45516666Y-139783333D01*
X46216666Y-140116666D02*
X45516666Y-140116666D01*
X45516666Y-140283333D01*
X45550000Y-140383333D01*
X45616666Y-140450000D01*
X45683333Y-140483333D01*
X45816666Y-140516666D01*
X45916666Y-140516666D01*
X46050000Y-140483333D01*
X46116666Y-140450000D01*
X46183333Y-140383333D01*
X46216666Y-140283333D01*
X46216666Y-140116666D01*
X45516666Y-141483333D02*
X45516666Y-141616666D01*
X45550000Y-141683333D01*
X45616666Y-141750000D01*
X45750000Y-141783333D01*
X45983333Y-141783333D01*
X46116666Y-141750000D01*
X46183333Y-141683333D01*
X46216666Y-141616666D01*
X46216666Y-141483333D01*
X46183333Y-141416666D01*
X46116666Y-141350000D01*
X45983333Y-141316666D01*
X45750000Y-141316666D01*
X45616666Y-141350000D01*
X45550000Y-141416666D01*
X45516666Y-141483333D01*
X45516666Y-142083333D02*
X46083333Y-142083333D01*
X46150000Y-142116666D01*
X46183333Y-142150000D01*
X46216666Y-142216666D01*
X46216666Y-142350000D01*
X46183333Y-142416666D01*
X46150000Y-142450000D01*
X46083333Y-142483333D01*
X45516666Y-142483333D01*
X45516666Y-142716666D02*
X45516666Y-143116666D01*
X46216666Y-142916666D02*
X45516666Y-142916666D01*
X92633333Y-142183333D02*
X92633333Y-142516666D01*
X92300000Y-142550000D01*
X92333333Y-142516666D01*
X92366666Y-142450000D01*
X92366666Y-142283333D01*
X92333333Y-142216666D01*
X92300000Y-142183333D01*
X92233333Y-142150000D01*
X92066666Y-142150000D01*
X92000000Y-142183333D01*
X91966666Y-142216666D01*
X91933333Y-142283333D01*
X91933333Y-142450000D01*
X91966666Y-142516666D01*
X92000000Y-142550000D01*
X92633333Y-141950000D02*
X91933333Y-141716666D01*
X92633333Y-141483333D01*
X92600000Y-140350000D02*
X92633333Y-140416666D01*
X92633333Y-140516666D01*
X92600000Y-140616666D01*
X92533333Y-140683333D01*
X92466666Y-140716666D01*
X92333333Y-140750000D01*
X92233333Y-140750000D01*
X92100000Y-140716666D01*
X92033333Y-140683333D01*
X91966666Y-140616666D01*
X91933333Y-140516666D01*
X91933333Y-140450000D01*
X91966666Y-140350000D01*
X92000000Y-140316666D01*
X92233333Y-140316666D01*
X92233333Y-140450000D01*
X91933333Y-140016666D02*
X92633333Y-140016666D01*
X91933333Y-139616666D01*
X92633333Y-139616666D01*
X91933333Y-139283333D02*
X92633333Y-139283333D01*
X92633333Y-139116666D01*
X92600000Y-139016666D01*
X92533333Y-138950000D01*
X92466666Y-138916666D01*
X92333333Y-138883333D01*
X92233333Y-138883333D01*
X92100000Y-138916666D01*
X92033333Y-138950000D01*
X91966666Y-139016666D01*
X91933333Y-139116666D01*
X91933333Y-139283333D01*
X92633333Y-137916666D02*
X92633333Y-137783333D01*
X92600000Y-137716666D01*
X92533333Y-137650000D01*
X92400000Y-137616666D01*
X92166666Y-137616666D01*
X92033333Y-137650000D01*
X91966666Y-137716666D01*
X91933333Y-137783333D01*
X91933333Y-137916666D01*
X91966666Y-137983333D01*
X92033333Y-138050000D01*
X92166666Y-138083333D01*
X92400000Y-138083333D01*
X92533333Y-138050000D01*
X92600000Y-137983333D01*
X92633333Y-137916666D01*
X92633333Y-137316666D02*
X92066666Y-137316666D01*
X92000000Y-137283333D01*
X91966666Y-137250000D01*
X91933333Y-137183333D01*
X91933333Y-137050000D01*
X91966666Y-136983333D01*
X92000000Y-136950000D01*
X92066666Y-136916666D01*
X92633333Y-136916666D01*
X92633333Y-136683333D02*
X92633333Y-136283333D01*
X91933333Y-136483333D02*
X92633333Y-136483333D01*
X62680952Y-122421428D02*
X61919047Y-122421428D01*
X62300000Y-122802380D02*
X62300000Y-122040476D01*
D11*
X74578571Y-100207142D02*
X74364285Y-100278571D01*
X74007142Y-100278571D01*
X73864285Y-100207142D01*
X73792857Y-100135714D01*
X73721428Y-99992857D01*
X73721428Y-99850000D01*
X73792857Y-99707142D01*
X73864285Y-99635714D01*
X74007142Y-99564285D01*
X74292857Y-99492857D01*
X74435714Y-99421428D01*
X74507142Y-99350000D01*
X74578571Y-99207142D01*
X74578571Y-99064285D01*
X74507142Y-98921428D01*
X74435714Y-98850000D01*
X74292857Y-98778571D01*
X73935714Y-98778571D01*
X73721428Y-98850000D01*
X73292857Y-98778571D02*
X72435714Y-98778571D01*
X72864285Y-100278571D02*
X72864285Y-98778571D01*
X71935714Y-99707142D02*
X70792857Y-99707142D01*
X69364285Y-100278571D02*
X70078571Y-100278571D01*
X70078571Y-98778571D01*
X68864285Y-100278571D02*
X68864285Y-99278571D01*
X68864285Y-98778571D02*
X68935714Y-98850000D01*
X68864285Y-98921428D01*
X68792857Y-98850000D01*
X68864285Y-98778571D01*
X68864285Y-98921428D01*
X68150000Y-99278571D02*
X68150000Y-100278571D01*
X68150000Y-99421428D02*
X68078571Y-99350000D01*
X67935714Y-99278571D01*
X67721428Y-99278571D01*
X67578571Y-99350000D01*
X67507142Y-99492857D01*
X67507142Y-100278571D01*
X66792857Y-100278571D02*
X66792857Y-98778571D01*
X66650000Y-99707142D02*
X66221428Y-100278571D01*
X66221428Y-99278571D02*
X66792857Y-99850000D01*
X81821428Y-99607142D02*
X80678571Y-99607142D01*
X81250000Y-100178571D02*
X81250000Y-99035714D01*
X76321428Y-107607142D02*
X75178571Y-107607142D01*
X75750000Y-108178571D02*
X75750000Y-107035714D01*
D12*
X49438095Y-143400000D02*
X49342857Y-143447619D01*
X49200000Y-143447619D01*
X49057142Y-143400000D01*
X48961904Y-143304761D01*
X48914285Y-143209523D01*
X48866666Y-143019047D01*
X48866666Y-142876190D01*
X48914285Y-142685714D01*
X48961904Y-142590476D01*
X49057142Y-142495238D01*
X49200000Y-142447619D01*
X49295238Y-142447619D01*
X49438095Y-142495238D01*
X49485714Y-142542857D01*
X49485714Y-142876190D01*
X49295238Y-142876190D01*
X49914285Y-142447619D02*
X49914285Y-143447619D01*
X50485714Y-142447619D01*
X50485714Y-143447619D01*
X50961904Y-142447619D02*
X50961904Y-143447619D01*
X51200000Y-143447619D01*
X51342857Y-143400000D01*
X51438095Y-143304761D01*
X51485714Y-143209523D01*
X51533333Y-143019047D01*
X51533333Y-142876190D01*
X51485714Y-142685714D01*
X51438095Y-142590476D01*
X51342857Y-142495238D01*
X51200000Y-142447619D01*
X50961904Y-142447619D01*
X53295238Y-142447619D02*
X52961904Y-142923809D01*
X52723809Y-142447619D02*
X52723809Y-143447619D01*
X53104761Y-143447619D01*
X53200000Y-143400000D01*
X53247619Y-143352380D01*
X53295238Y-143257142D01*
X53295238Y-143114285D01*
X53247619Y-143019047D01*
X53200000Y-142971428D01*
X53104761Y-142923809D01*
X52723809Y-142923809D01*
X53580952Y-143447619D02*
X54152380Y-143447619D01*
X53866666Y-142447619D02*
X53866666Y-143447619D01*
X55104761Y-143447619D02*
X55676190Y-143447619D01*
X55390476Y-142447619D02*
X55390476Y-143447619D01*
X55914285Y-143447619D02*
X56580952Y-142447619D01*
X56580952Y-143447619D02*
X55914285Y-142447619D01*
D11*
X83400000Y-152500000D02*
X83257142Y-152571428D01*
X83042857Y-152571428D01*
X82828571Y-152500000D01*
X82685714Y-152357142D01*
X82614285Y-152214285D01*
X82542857Y-151928571D01*
X82542857Y-151714285D01*
X82614285Y-151428571D01*
X82685714Y-151285714D01*
X82828571Y-151142857D01*
X83042857Y-151071428D01*
X83185714Y-151071428D01*
X83400000Y-151142857D01*
X83471428Y-151214285D01*
X83471428Y-151714285D01*
X83185714Y-151714285D01*
X84114285Y-151071428D02*
X84114285Y-152571428D01*
X84971428Y-151071428D01*
X84971428Y-152571428D01*
X85685714Y-151071428D02*
X85685714Y-152571428D01*
X86042857Y-152571428D01*
X86257142Y-152500000D01*
X86400000Y-152357142D01*
X86471428Y-152214285D01*
X86542857Y-151928571D01*
X86542857Y-151714285D01*
X86471428Y-151428571D01*
X86400000Y-151285714D01*
X86257142Y-151142857D01*
X86042857Y-151071428D01*
X85685714Y-151071428D01*
X88328571Y-151642857D02*
X89471428Y-151642857D01*
X88900000Y-151071428D02*
X88900000Y-152214285D01*
X90900000Y-152571428D02*
X90185714Y-152571428D01*
X90114285Y-151857142D01*
X90185714Y-151928571D01*
X90328571Y-152000000D01*
X90685714Y-152000000D01*
X90828571Y-151928571D01*
X90900000Y-151857142D01*
X90971428Y-151714285D01*
X90971428Y-151357142D01*
X90900000Y-151214285D01*
X90828571Y-151142857D01*
X90685714Y-151071428D01*
X90328571Y-151071428D01*
X90185714Y-151142857D01*
X90114285Y-151214285D01*
X91400000Y-152571428D02*
X91900000Y-151071428D01*
X92400000Y-152571428D01*
D13*
X95490000Y-103640000D02*
X95040000Y-103640000D01*
X95040000Y-103640000D02*
X95040000Y-104590000D01*
X95040000Y-104590000D02*
X93550000Y-104590000D01*
X95490000Y-114360000D02*
X95040000Y-114360000D01*
X95040000Y-114360000D02*
X95040000Y-113410000D01*
X99010000Y-103640000D02*
X99460000Y-103640000D01*
X99460000Y-103640000D02*
X99460000Y-114360000D01*
X99460000Y-114360000D02*
X99010000Y-114360000D01*
X66508578Y-128460000D02*
X65991422Y-128460000D01*
X66508578Y-127040000D02*
X65991422Y-127040000D01*
X66508578Y-124790000D02*
X65991422Y-124790000D01*
X66508578Y-126210000D02*
X65991422Y-126210000D01*
X64990000Y-109412779D02*
X64990000Y-109087221D01*
X66010000Y-109412779D02*
X66010000Y-109087221D01*
X62990000Y-109837221D02*
X62990000Y-110162779D01*
X64010000Y-109837221D02*
X64010000Y-110162779D01*
D14*
X84750000Y-138975000D02*
X84750000Y-137525000D01*
D13*
X42760000Y-113610000D02*
X43210000Y-113610000D01*
X43210000Y-113610000D02*
X43210000Y-112660000D01*
X43210000Y-112660000D02*
X44700000Y-112660000D01*
X42760000Y-105390000D02*
X43210000Y-105390000D01*
X43210000Y-105390000D02*
X43210000Y-106340000D01*
X39240000Y-113610000D02*
X38790000Y-113610000D01*
X38790000Y-113610000D02*
X38790000Y-105390000D01*
X38790000Y-105390000D02*
X39240000Y-105390000D01*
X66765000Y-104760000D02*
X66765000Y-105710000D01*
X66765000Y-105710000D02*
X67715000Y-105710000D01*
X67715000Y-105710000D02*
X67715000Y-106400000D01*
X73735000Y-104760000D02*
X73735000Y-105710000D01*
X73735000Y-105710000D02*
X72785000Y-105710000D01*
X67135000Y-101790000D02*
X73365000Y-101790000D01*
X55860000Y-145990000D02*
X55860000Y-145540000D01*
X55860000Y-145540000D02*
X54910000Y-145540000D01*
X54910000Y-145540000D02*
X54910000Y-144050000D01*
X50140000Y-145990000D02*
X50140000Y-145540000D01*
X50140000Y-145540000D02*
X51090000Y-145540000D01*
X55860000Y-149510000D02*
X55860000Y-149960000D01*
X55860000Y-149960000D02*
X50140000Y-149960000D01*
X50140000Y-149960000D02*
X50140000Y-149510000D01*
X89960000Y-93990000D02*
X89960000Y-94440000D01*
X81740000Y-93990000D02*
X89960000Y-93990000D01*
X81740000Y-94440000D02*
X81740000Y-93990000D01*
X89960000Y-98410000D02*
X89010000Y-98410000D01*
X89960000Y-97960000D02*
X89960000Y-98410000D01*
X82690000Y-98410000D02*
X82690000Y-99900000D01*
X81740000Y-98410000D02*
X82690000Y-98410000D01*
X81740000Y-97960000D02*
X81740000Y-98410000D01*
X85725000Y-145025000D02*
X85725000Y-142625000D01*
X91575000Y-145025000D02*
X89275000Y-145025000D01*
X91575000Y-145850000D02*
X91575000Y-145025000D01*
X83425000Y-145025000D02*
X85725000Y-145025000D01*
X83425000Y-145850000D02*
X83425000Y-145025000D01*
X91575000Y-150225000D02*
X91575000Y-149400000D01*
X83425000Y-150225000D02*
X91575000Y-150225000D01*
X83425000Y-149400000D02*
X83425000Y-150225000D01*
X63765000Y-121060000D02*
X63765000Y-122010000D01*
X63765000Y-122010000D02*
X64715000Y-122010000D01*
X64715000Y-122010000D02*
X64715000Y-122700000D01*
X70735000Y-121060000D02*
X70735000Y-122010000D01*
X70735000Y-122010000D02*
X69785000Y-122010000D01*
X64135000Y-118090000D02*
X70365000Y-118090000D01*
X94990000Y-136840000D02*
X94040000Y-136840000D01*
X94040000Y-136840000D02*
X94040000Y-137790000D01*
X94040000Y-137790000D02*
X93350000Y-137790000D01*
X94990000Y-142560000D02*
X94040000Y-142560000D01*
X94040000Y-142560000D02*
X94040000Y-141610000D01*
X97960000Y-137210000D02*
X97960000Y-142190000D01*
X40470000Y-142190000D02*
X40470000Y-137210000D01*
X44390000Y-136840000D02*
X44390000Y-137790000D01*
X43440000Y-136840000D02*
X44390000Y-136840000D01*
X44390000Y-141610000D02*
X45080000Y-141610000D01*
X44390000Y-142560000D02*
X44390000Y-141610000D01*
X43440000Y-142560000D02*
X44390000Y-142560000D01*
D10*
X91802380Y-108666666D02*
X92516666Y-108666666D01*
X92659523Y-108619047D01*
X92754761Y-108523809D01*
X92802380Y-108380952D01*
X92802380Y-108285714D01*
X91897619Y-109095238D02*
X91850000Y-109142857D01*
X91802380Y-109238095D01*
X91802380Y-109476190D01*
X91850000Y-109571428D01*
X91897619Y-109619047D01*
X91992857Y-109666666D01*
X92088095Y-109666666D01*
X92230952Y-109619047D01*
X92802380Y-109047619D01*
X92802380Y-109666666D01*
X63416666Y-128107142D02*
X63464285Y-128154761D01*
X63607142Y-128202380D01*
X63702380Y-128202380D01*
X63845238Y-128154761D01*
X63940476Y-128059523D01*
X63988095Y-127964285D01*
X64035714Y-127773809D01*
X64035714Y-127630952D01*
X63988095Y-127440476D01*
X63940476Y-127345238D01*
X63845238Y-127250000D01*
X63702380Y-127202380D01*
X63607142Y-127202380D01*
X63464285Y-127250000D01*
X63416666Y-127297619D01*
X62559523Y-127202380D02*
X62750000Y-127202380D01*
X62845238Y-127250000D01*
X62892857Y-127297619D01*
X62988095Y-127440476D01*
X63035714Y-127630952D01*
X63035714Y-128011904D01*
X62988095Y-128107142D01*
X62940476Y-128154761D01*
X62845238Y-128202380D01*
X62654761Y-128202380D01*
X62559523Y-128154761D01*
X62511904Y-128107142D01*
X62464285Y-128011904D01*
X62464285Y-127773809D01*
X62511904Y-127678571D01*
X62559523Y-127630952D01*
X62654761Y-127583333D01*
X62845238Y-127583333D01*
X62940476Y-127630952D01*
X62988095Y-127678571D01*
X63035714Y-127773809D01*
X63416666Y-125857142D02*
X63464285Y-125904761D01*
X63607142Y-125952380D01*
X63702380Y-125952380D01*
X63845238Y-125904761D01*
X63940476Y-125809523D01*
X63988095Y-125714285D01*
X64035714Y-125523809D01*
X64035714Y-125380952D01*
X63988095Y-125190476D01*
X63940476Y-125095238D01*
X63845238Y-125000000D01*
X63702380Y-124952380D01*
X63607142Y-124952380D01*
X63464285Y-125000000D01*
X63416666Y-125047619D01*
X63083333Y-124952380D02*
X62416666Y-124952380D01*
X62845238Y-125952380D01*
X67382380Y-108607142D02*
X66906190Y-108273809D01*
X67382380Y-108035714D02*
X66382380Y-108035714D01*
X66382380Y-108416666D01*
X66430000Y-108511904D01*
X66477619Y-108559523D01*
X66572857Y-108607142D01*
X66715714Y-108607142D01*
X66810952Y-108559523D01*
X66858571Y-108511904D01*
X66906190Y-108416666D01*
X66906190Y-108035714D01*
X67382380Y-109559523D02*
X67382380Y-108988095D01*
X67382380Y-109273809D02*
X66382380Y-109273809D01*
X66525238Y-109178571D01*
X66620476Y-109083333D01*
X66668095Y-108988095D01*
X66382380Y-110178571D02*
X66382380Y-110273809D01*
X66430000Y-110369047D01*
X66477619Y-110416666D01*
X66572857Y-110464285D01*
X66763333Y-110511904D01*
X67001428Y-110511904D01*
X67191904Y-110464285D01*
X67287142Y-110416666D01*
X67334761Y-110369047D01*
X67382380Y-110273809D01*
X67382380Y-110178571D01*
X67334761Y-110083333D01*
X67287142Y-110035714D01*
X67191904Y-109988095D01*
X67001428Y-109940476D01*
X66763333Y-109940476D01*
X66572857Y-109988095D01*
X66477619Y-110035714D01*
X66430000Y-110083333D01*
X66382380Y-110178571D01*
X62522380Y-109357142D02*
X62046190Y-109023809D01*
X62522380Y-108785714D02*
X61522380Y-108785714D01*
X61522380Y-109166666D01*
X61570000Y-109261904D01*
X61617619Y-109309523D01*
X61712857Y-109357142D01*
X61855714Y-109357142D01*
X61950952Y-109309523D01*
X61998571Y-109261904D01*
X62046190Y-109166666D01*
X62046190Y-108785714D01*
X62522380Y-110309523D02*
X62522380Y-109738095D01*
X62522380Y-110023809D02*
X61522380Y-110023809D01*
X61665238Y-109928571D01*
X61760476Y-109833333D01*
X61808095Y-109738095D01*
X62522380Y-111261904D02*
X62522380Y-110690476D01*
X62522380Y-110976190D02*
X61522380Y-110976190D01*
X61665238Y-110880952D01*
X61760476Y-110785714D01*
X61808095Y-110690476D01*
D15*
X85173333Y-136159285D02*
X85596666Y-136159285D01*
X85596666Y-136824523D02*
X85596666Y-135554523D01*
X84991904Y-135554523D01*
X83842857Y-136824523D02*
X84568571Y-136824523D01*
X84205714Y-136824523D02*
X84205714Y-135554523D01*
X84326666Y-135735952D01*
X84447619Y-135856904D01*
X84568571Y-135917380D01*
D10*
X45352380Y-109166666D02*
X46066666Y-109166666D01*
X46209523Y-109119047D01*
X46304761Y-109023809D01*
X46352380Y-108880952D01*
X46352380Y-108785714D01*
X45352380Y-109547619D02*
X45352380Y-110166666D01*
X45733333Y-109833333D01*
X45733333Y-109976190D01*
X45780952Y-110071428D01*
X45828571Y-110119047D01*
X45923809Y-110166666D01*
X46161904Y-110166666D01*
X46257142Y-110119047D01*
X46304761Y-110071428D01*
X46352380Y-109976190D01*
X46352380Y-109690476D01*
X46304761Y-109595238D01*
X46257142Y-109547619D01*
X70583333Y-107052380D02*
X70583333Y-107766666D01*
X70630952Y-107909523D01*
X70726190Y-108004761D01*
X70869047Y-108052380D01*
X70964285Y-108052380D01*
X69678571Y-107385714D02*
X69678571Y-108052380D01*
X69916666Y-107004761D02*
X70154761Y-107719047D01*
X69535714Y-107719047D01*
X53333333Y-151252380D02*
X53333333Y-151966666D01*
X53380952Y-152109523D01*
X53476190Y-152204761D01*
X53619047Y-152252380D01*
X53714285Y-152252380D01*
X52380952Y-151252380D02*
X52857142Y-151252380D01*
X52904761Y-151728571D01*
X52857142Y-151680952D01*
X52761904Y-151633333D01*
X52523809Y-151633333D01*
X52428571Y-151680952D01*
X52380952Y-151728571D01*
X52333333Y-151823809D01*
X52333333Y-152061904D01*
X52380952Y-152157142D01*
X52428571Y-152204761D01*
X52523809Y-152252380D01*
X52761904Y-152252380D01*
X52857142Y-152204761D01*
X52904761Y-152157142D01*
X86183333Y-100552380D02*
X86183333Y-101266666D01*
X86230952Y-101409523D01*
X86326190Y-101504761D01*
X86469047Y-101552380D01*
X86564285Y-101552380D01*
X85278571Y-100552380D02*
X85469047Y-100552380D01*
X85564285Y-100600000D01*
X85611904Y-100647619D01*
X85707142Y-100790476D01*
X85754761Y-100980952D01*
X85754761Y-101361904D01*
X85707142Y-101457142D01*
X85659523Y-101504761D01*
X85564285Y-101552380D01*
X85373809Y-101552380D01*
X85278571Y-101504761D01*
X85230952Y-101457142D01*
X85183333Y-101361904D01*
X85183333Y-101123809D01*
X85230952Y-101028571D01*
X85278571Y-100980952D01*
X85373809Y-100933333D01*
X85564285Y-100933333D01*
X85659523Y-100980952D01*
X85707142Y-101028571D01*
X85754761Y-101123809D01*
X92552380Y-146816666D02*
X93266666Y-146816666D01*
X93409523Y-146769047D01*
X93504761Y-146673809D01*
X93552380Y-146530952D01*
X93552380Y-146435714D01*
X93552380Y-147816666D02*
X93552380Y-147245238D01*
X93552380Y-147530952D02*
X92552380Y-147530952D01*
X92695238Y-147435714D01*
X92790476Y-147340476D01*
X92838095Y-147245238D01*
X72883333Y-121902380D02*
X72883333Y-122616666D01*
X72930952Y-122759523D01*
X73026190Y-122854761D01*
X73169047Y-122902380D01*
X73264285Y-122902380D01*
X72502380Y-121902380D02*
X71835714Y-121902380D01*
X72264285Y-122902380D01*
X100002380Y-139366666D02*
X100716666Y-139366666D01*
X100859523Y-139319047D01*
X100954761Y-139223809D01*
X101002380Y-139080952D01*
X101002380Y-138985714D01*
X101002380Y-139890476D02*
X101002380Y-140080952D01*
X100954761Y-140176190D01*
X100907142Y-140223809D01*
X100764285Y-140319047D01*
X100573809Y-140366666D01*
X100192857Y-140366666D01*
X100097619Y-140319047D01*
X100050000Y-140271428D01*
X100002380Y-140176190D01*
X100002380Y-139985714D01*
X100050000Y-139890476D01*
X100097619Y-139842857D01*
X100192857Y-139795238D01*
X100430952Y-139795238D01*
X100526190Y-139842857D01*
X100573809Y-139890476D01*
X100621428Y-139985714D01*
X100621428Y-140176190D01*
X100573809Y-140271428D01*
X100526190Y-140319047D01*
X100430952Y-140366666D01*
X37402380Y-138790476D02*
X38116666Y-138790476D01*
X38259523Y-138742857D01*
X38354761Y-138647619D01*
X38402380Y-138504761D01*
X38402380Y-138409523D01*
X38402380Y-139790476D02*
X38402380Y-139219047D01*
X38402380Y-139504761D02*
X37402380Y-139504761D01*
X37545238Y-139409523D01*
X37640476Y-139314285D01*
X37688095Y-139219047D01*
X37402380Y-140409523D02*
X37402380Y-140504761D01*
X37450000Y-140600000D01*
X37497619Y-140647619D01*
X37592857Y-140695238D01*
X37783333Y-140742857D01*
X38021428Y-140742857D01*
X38211904Y-140695238D01*
X38307142Y-140647619D01*
X38354761Y-140600000D01*
X38402380Y-140504761D01*
X38402380Y-140409523D01*
X38354761Y-140314285D01*
X38307142Y-140266666D01*
X38211904Y-140219047D01*
X38021428Y-140171428D01*
X37783333Y-140171428D01*
X37592857Y-140219047D01*
X37497619Y-140266666D01*
X37450000Y-140314285D01*
X37402380Y-140409523D01*
M02*
