G04 #@! TF.GenerationSoftware,KiCad,Pcbnew,(5.1.5)-3*
G04 #@! TF.CreationDate,2020-03-19T10:51:44+02:00*
G04 #@! TF.ProjectId,SeamlessVision,5365616d-6c65-4737-9356-6973696f6e2e,rev?*
G04 #@! TF.SameCoordinates,Original*
G04 #@! TF.FileFunction,Profile,NP*
%FSLAX46Y46*%
G04 Gerber Fmt 4.6, Leading zero omitted, Abs format (unit mm)*
G04 Created by KiCad (PCBNEW (5.1.5)-3) date 2020-03-19 10:51:44*
%MOMM*%
%LPD*%
G04 APERTURE LIST*
%ADD10C,0.100000*%
%ADD11C,0.050000*%
G04 APERTURE END LIST*
D10*
X92750000Y-115000548D02*
X89000000Y-115000000D01*
X89000000Y-130750000D02*
X92750000Y-130750548D01*
X89000000Y-115000000D02*
X89000000Y-130750000D01*
X92750000Y-115000548D02*
X92750000Y-130750548D01*
X45750000Y-115000000D02*
X45750000Y-130750000D01*
X49500000Y-115000548D02*
X49500000Y-130750548D01*
D11*
X51184164Y-92919404D02*
G75*
G02X87239677Y-92919404I18027756J-30000000D01*
G01*
X36711920Y-152919404D02*
X36711920Y-92919404D01*
X51184164Y-92919404D02*
X36711920Y-92919404D01*
X42461920Y-96919404D02*
G75*
G03X42461920Y-96919404I-1750000J0D01*
G01*
D10*
X45750000Y-130750000D02*
X49500000Y-130750548D01*
X49500000Y-115000548D02*
X45750000Y-115000000D01*
D11*
X50598085Y-134411877D02*
G75*
G03X50598085Y-134411877I-1250000J0D01*
G01*
X51184164Y-152919404D02*
X36711920Y-152919404D01*
X101711920Y-152919404D02*
X101711920Y-92919404D01*
X87239677Y-152919404D02*
G75*
G02X51184164Y-152919404I-18027757J30000000D01*
G01*
X62771510Y-95850747D02*
G75*
G03X62771510Y-95850747I-1250000J0D01*
G01*
X42461920Y-148919404D02*
G75*
G03X42461920Y-148919404I-1750000J0D01*
G01*
X101711920Y-92919404D02*
X87239677Y-92919404D01*
X90435284Y-134419961D02*
G75*
G03X90435284Y-134419961I-1250000J0D01*
G01*
X99461920Y-148919404D02*
G75*
G03X99461920Y-148919404I-1750000J0D01*
G01*
X99461920Y-96919404D02*
G75*
G03X99461920Y-96919404I-1750000J0D01*
G01*
X101711920Y-152919404D02*
X87239677Y-152919404D01*
M02*
