G04 #@! TF.GenerationSoftware,KiCad,Pcbnew,(5.1.5)-3*
G04 #@! TF.CreationDate,2020-03-19T10:51:44+02:00*
G04 #@! TF.ProjectId,SeamlessVision,5365616d-6c65-4737-9356-6973696f6e2e,rev?*
G04 #@! TF.SameCoordinates,Original*
G04 #@! TF.FileFunction,Legend,Top*
G04 #@! TF.FilePolarity,Positive*
%FSLAX46Y46*%
G04 Gerber Fmt 4.6, Leading zero omitted, Abs format (unit mm)*
G04 Created by KiCad (PCBNEW (5.1.5)-3) date 2020-03-19 10:51:44*
%MOMM*%
%LPD*%
G04 APERTURE LIST*
%ADD10C,0.250000*%
%ADD11C,0.150000*%
%ADD12C,0.120000*%
%ADD13C,0.200000*%
%ADD14C,0.400000*%
%ADD15C,0.254000*%
G04 APERTURE END LIST*
D10*
X67440476Y-157202380D02*
X67440476Y-156202380D01*
X67821428Y-156202380D01*
X67916666Y-156250000D01*
X67964285Y-156297619D01*
X68011904Y-156392857D01*
X68011904Y-156535714D01*
X67964285Y-156630952D01*
X67916666Y-156678571D01*
X67821428Y-156726190D01*
X67440476Y-156726190D01*
X68630952Y-156202380D02*
X68821428Y-156202380D01*
X68916666Y-156250000D01*
X69011904Y-156345238D01*
X69059523Y-156535714D01*
X69059523Y-156869047D01*
X69011904Y-157059523D01*
X68916666Y-157154761D01*
X68821428Y-157202380D01*
X68630952Y-157202380D01*
X68535714Y-157154761D01*
X68440476Y-157059523D01*
X68392857Y-156869047D01*
X68392857Y-156535714D01*
X68440476Y-156345238D01*
X68535714Y-156250000D01*
X68630952Y-156202380D01*
X69392857Y-156202380D02*
X69630952Y-157202380D01*
X69821428Y-156488095D01*
X70011904Y-157202380D01*
X70250000Y-156202380D01*
X70630952Y-156678571D02*
X70964285Y-156678571D01*
X71107142Y-157202380D02*
X70630952Y-157202380D01*
X70630952Y-156202380D01*
X71107142Y-156202380D01*
X72107142Y-157202380D02*
X71773809Y-156726190D01*
X71535714Y-157202380D02*
X71535714Y-156202380D01*
X71916666Y-156202380D01*
X72011904Y-156250000D01*
X72059523Y-156297619D01*
X72107142Y-156392857D01*
X72107142Y-156535714D01*
X72059523Y-156630952D01*
X72011904Y-156678571D01*
X71916666Y-156726190D01*
X71535714Y-156726190D01*
D11*
X38880952Y-122952380D02*
X38404761Y-122952380D01*
X38404761Y-121952380D01*
X39214285Y-122428571D02*
X39547619Y-122428571D01*
X39690476Y-122952380D02*
X39214285Y-122952380D01*
X39214285Y-121952380D01*
X39690476Y-121952380D01*
X40119047Y-122952380D02*
X40119047Y-121952380D01*
X40357142Y-121952380D01*
X40500000Y-122000000D01*
X40595238Y-122095238D01*
X40642857Y-122190476D01*
X40690476Y-122380952D01*
X40690476Y-122523809D01*
X40642857Y-122714285D01*
X40595238Y-122809523D01*
X40500000Y-122904761D01*
X40357142Y-122952380D01*
X40119047Y-122952380D01*
X41642857Y-122952380D02*
X41071428Y-122952380D01*
X41357142Y-122952380D02*
X41357142Y-121952380D01*
X41261904Y-122095238D01*
X41166666Y-122190476D01*
X41071428Y-122238095D01*
X38880952Y-127702380D02*
X38404761Y-127702380D01*
X38404761Y-126702380D01*
X39214285Y-127178571D02*
X39547619Y-127178571D01*
X39690476Y-127702380D02*
X39214285Y-127702380D01*
X39214285Y-126702380D01*
X39690476Y-126702380D01*
X40119047Y-127702380D02*
X40119047Y-126702380D01*
X40357142Y-126702380D01*
X40500000Y-126750000D01*
X40595238Y-126845238D01*
X40642857Y-126940476D01*
X40690476Y-127130952D01*
X40690476Y-127273809D01*
X40642857Y-127464285D01*
X40595238Y-127559523D01*
X40500000Y-127654761D01*
X40357142Y-127702380D01*
X40119047Y-127702380D01*
X41071428Y-126797619D02*
X41119047Y-126750000D01*
X41214285Y-126702380D01*
X41452380Y-126702380D01*
X41547619Y-126750000D01*
X41595238Y-126797619D01*
X41642857Y-126892857D01*
X41642857Y-126988095D01*
X41595238Y-127130952D01*
X41023809Y-127702380D01*
X41642857Y-127702380D01*
X38880952Y-132702380D02*
X38404761Y-132702380D01*
X38404761Y-131702380D01*
X39214285Y-132178571D02*
X39547619Y-132178571D01*
X39690476Y-132702380D02*
X39214285Y-132702380D01*
X39214285Y-131702380D01*
X39690476Y-131702380D01*
X40119047Y-132702380D02*
X40119047Y-131702380D01*
X40357142Y-131702380D01*
X40500000Y-131750000D01*
X40595238Y-131845238D01*
X40642857Y-131940476D01*
X40690476Y-132130952D01*
X40690476Y-132273809D01*
X40642857Y-132464285D01*
X40595238Y-132559523D01*
X40500000Y-132654761D01*
X40357142Y-132702380D01*
X40119047Y-132702380D01*
X41023809Y-131702380D02*
X41642857Y-131702380D01*
X41309523Y-132083333D01*
X41452380Y-132083333D01*
X41547619Y-132130952D01*
X41595238Y-132178571D01*
X41642857Y-132273809D01*
X41642857Y-132511904D01*
X41595238Y-132607142D01*
X41547619Y-132654761D01*
X41452380Y-132702380D01*
X41166666Y-132702380D01*
X41071428Y-132654761D01*
X41023809Y-132607142D01*
D12*
X55387221Y-102490000D02*
X55712779Y-102490000D01*
X55387221Y-103510000D02*
X55712779Y-103510000D01*
X68740000Y-126125279D02*
X68740000Y-125799721D01*
X69760000Y-126125279D02*
X69760000Y-125799721D01*
X68700000Y-155735000D02*
X70985000Y-155735000D01*
X70985000Y-155735000D02*
X70985000Y-154265000D01*
X70985000Y-154265000D02*
X68700000Y-154265000D01*
X69337221Y-153510000D02*
X69662779Y-153510000D01*
X69337221Y-152490000D02*
X69662779Y-152490000D01*
X38265000Y-121735000D02*
X40550000Y-121735000D01*
X38265000Y-120265000D02*
X38265000Y-121735000D01*
X40550000Y-120265000D02*
X38265000Y-120265000D01*
X38265000Y-126485000D02*
X40550000Y-126485000D01*
X38265000Y-125015000D02*
X38265000Y-126485000D01*
X40550000Y-125015000D02*
X38265000Y-125015000D01*
X40550000Y-130015000D02*
X38265000Y-130015000D01*
X38265000Y-130015000D02*
X38265000Y-131485000D01*
X38265000Y-131485000D02*
X40550000Y-131485000D01*
X43337221Y-121510000D02*
X43662779Y-121510000D01*
X43337221Y-120490000D02*
X43662779Y-120490000D01*
X43337221Y-125240000D02*
X43662779Y-125240000D01*
X43337221Y-126260000D02*
X43662779Y-126260000D01*
X43337221Y-130240000D02*
X43662779Y-130240000D01*
X43337221Y-131260000D02*
X43662779Y-131260000D01*
X79397936Y-146890000D02*
X80602064Y-146890000D01*
X79397936Y-149610000D02*
X80602064Y-149610000D01*
X79241422Y-151960000D02*
X79758578Y-151960000D01*
X79241422Y-150540000D02*
X79758578Y-150540000D01*
X73241422Y-140790000D02*
X73758578Y-140790000D01*
X73241422Y-142210000D02*
X73758578Y-142210000D01*
X64040000Y-113241422D02*
X64040000Y-113758578D01*
X65460000Y-113241422D02*
X65460000Y-113758578D01*
X68960000Y-113241422D02*
X68960000Y-113758578D01*
X67540000Y-113241422D02*
X67540000Y-113758578D01*
X74790000Y-126508578D02*
X74790000Y-125991422D01*
X76210000Y-126508578D02*
X76210000Y-125991422D01*
X68491422Y-131960000D02*
X69008578Y-131960000D01*
X68491422Y-130540000D02*
X69008578Y-130540000D01*
X85210000Y-114491422D02*
X85210000Y-115008578D01*
X83790000Y-114491422D02*
X83790000Y-115008578D01*
X79790000Y-114491422D02*
X79790000Y-115008578D01*
X81210000Y-114491422D02*
X81210000Y-115008578D01*
X77100000Y-141100000D02*
X82500000Y-141100000D01*
X77100000Y-144400000D02*
X82500000Y-144400000D01*
X77100000Y-141100000D02*
X77100000Y-144400000D01*
D13*
X79900000Y-118050000D02*
X83100000Y-118050000D01*
X83100000Y-118050000D02*
X83100000Y-127950000D01*
X83100000Y-127950000D02*
X79900000Y-127950000D01*
X79900000Y-127950000D02*
X79900000Y-118050000D01*
X78000000Y-117855000D02*
X79550000Y-117855000D01*
X53600000Y-106600000D02*
X59900000Y-106600000D01*
X59900000Y-106600000D02*
X59900000Y-112900000D01*
X59900000Y-112900000D02*
X53600000Y-112900000D01*
X53600000Y-112900000D02*
X53600000Y-106600000D01*
D14*
X52375000Y-105750000D02*
G75*
G03X52375000Y-105750000I-200000J0D01*
G01*
D12*
X55150000Y-101950000D02*
X55450000Y-102250000D01*
X54850000Y-102250000D02*
X55450000Y-102250000D01*
X55150000Y-101950000D02*
X54850000Y-102250000D01*
X54300000Y-101050000D02*
X54300000Y-100450000D01*
X57750000Y-101750000D02*
X54950000Y-101750000D01*
X58400000Y-100450000D02*
X58400000Y-101050000D01*
X54950000Y-99750000D02*
X57750000Y-99750000D01*
X57700000Y-99750000D02*
G75*
G02X58400000Y-100450000I0J-700000D01*
G01*
X58400000Y-101050000D02*
G75*
G02X57700000Y-101750000I-700000J0D01*
G01*
X55000000Y-101750000D02*
G75*
G02X54300000Y-101050000I0J700000D01*
G01*
X54300000Y-100450000D02*
G75*
G02X55000000Y-99750000I700000J0D01*
G01*
X88500000Y-121200000D02*
G75*
G02X87800000Y-121900000I-700000J0D01*
G01*
X87200000Y-121900000D02*
G75*
G02X86500000Y-121200000I0J700000D01*
G01*
X86500000Y-119800000D02*
G75*
G02X87200000Y-119100000I700000J0D01*
G01*
X87800000Y-119100000D02*
G75*
G02X88500000Y-119800000I0J-700000D01*
G01*
X87200000Y-119100000D02*
X87800000Y-119100000D01*
X86500000Y-121200000D02*
X86500000Y-119800000D01*
X87800000Y-121900000D02*
X87200000Y-121900000D01*
X88500000Y-119800000D02*
X88500000Y-121200000D01*
X66750000Y-118520000D02*
X68750000Y-118520000D01*
X68750000Y-121480000D02*
X66750000Y-121480000D01*
D13*
X75300000Y-114850000D02*
X75300000Y-114650000D01*
X75300000Y-114650000D02*
X78200000Y-114650000D01*
X78200000Y-114650000D02*
X78200000Y-114850000D01*
X78200000Y-114850000D02*
X75300000Y-114850000D01*
X75215000Y-116400000D02*
X75215000Y-115200000D01*
D12*
X71490000Y-123662779D02*
X71490000Y-123337221D01*
X72510000Y-123662779D02*
X72510000Y-123337221D01*
X72510000Y-127625279D02*
X72510000Y-127299721D01*
X71490000Y-127625279D02*
X71490000Y-127299721D01*
X68260000Y-126162779D02*
X68260000Y-125837221D01*
X67240000Y-126162779D02*
X67240000Y-125837221D01*
X87240000Y-115912779D02*
X87240000Y-115587221D01*
X88260000Y-115912779D02*
X88260000Y-115587221D01*
X73100000Y-148110000D02*
X75550000Y-148110000D01*
X74900000Y-144890000D02*
X73100000Y-144890000D01*
X54837221Y-122490000D02*
X55162779Y-122490000D01*
X54837221Y-123510000D02*
X55162779Y-123510000D01*
X54837221Y-127260000D02*
X55162779Y-127260000D01*
X54837221Y-126240000D02*
X55162779Y-126240000D01*
X52907000Y-98801422D02*
X52907000Y-99318578D01*
X51487000Y-98801422D02*
X51487000Y-99318578D01*
X46858422Y-102691000D02*
X47375578Y-102691000D01*
X46858422Y-101271000D02*
X47375578Y-101271000D01*
X43940000Y-98714779D02*
X43940000Y-98389221D01*
X44960000Y-98714779D02*
X44960000Y-98389221D01*
X47487000Y-99908000D02*
X49287000Y-99908000D01*
X49287000Y-96688000D02*
X46837000Y-96688000D01*
X43120000Y-96580000D02*
X45780000Y-96580000D01*
X43120000Y-96520000D02*
X43120000Y-96580000D01*
X45780000Y-96520000D02*
X45780000Y-96580000D01*
X43120000Y-96520000D02*
X45780000Y-96520000D01*
X43120000Y-95250000D02*
X43120000Y-93920000D01*
X43120000Y-93920000D02*
X44450000Y-93920000D01*
D11*
X51907142Y-103452380D02*
X51573809Y-102976190D01*
X51335714Y-103452380D02*
X51335714Y-102452380D01*
X51716666Y-102452380D01*
X51811904Y-102500000D01*
X51859523Y-102547619D01*
X51907142Y-102642857D01*
X51907142Y-102785714D01*
X51859523Y-102880952D01*
X51811904Y-102928571D01*
X51716666Y-102976190D01*
X51335714Y-102976190D01*
X52859523Y-103452380D02*
X52288095Y-103452380D01*
X52573809Y-103452380D02*
X52573809Y-102452380D01*
X52478571Y-102595238D01*
X52383333Y-102690476D01*
X52288095Y-102738095D01*
X53716666Y-102785714D02*
X53716666Y-103452380D01*
X53478571Y-102404761D02*
X53240476Y-103119047D01*
X53859523Y-103119047D01*
X69702380Y-128629166D02*
X69226190Y-128962500D01*
X69702380Y-129200595D02*
X68702380Y-129200595D01*
X68702380Y-128819642D01*
X68750000Y-128724404D01*
X68797619Y-128676785D01*
X68892857Y-128629166D01*
X69035714Y-128629166D01*
X69130952Y-128676785D01*
X69178571Y-128724404D01*
X69226190Y-128819642D01*
X69226190Y-129200595D01*
X68702380Y-128295833D02*
X68702380Y-127629166D01*
X69702380Y-128057738D01*
X66011904Y-155452380D02*
X66011904Y-154452380D01*
X66250000Y-154452380D01*
X66392857Y-154500000D01*
X66488095Y-154595238D01*
X66535714Y-154690476D01*
X66583333Y-154880952D01*
X66583333Y-155023809D01*
X66535714Y-155214285D01*
X66488095Y-155309523D01*
X66392857Y-155404761D01*
X66250000Y-155452380D01*
X66011904Y-155452380D01*
X66964285Y-154547619D02*
X67011904Y-154500000D01*
X67107142Y-154452380D01*
X67345238Y-154452380D01*
X67440476Y-154500000D01*
X67488095Y-154547619D01*
X67535714Y-154642857D01*
X67535714Y-154738095D01*
X67488095Y-154880952D01*
X66916666Y-155452380D01*
X67535714Y-155452380D01*
X66583333Y-153452380D02*
X66250000Y-152976190D01*
X66011904Y-153452380D02*
X66011904Y-152452380D01*
X66392857Y-152452380D01*
X66488095Y-152500000D01*
X66535714Y-152547619D01*
X66583333Y-152642857D01*
X66583333Y-152785714D01*
X66535714Y-152880952D01*
X66488095Y-152928571D01*
X66392857Y-152976190D01*
X66011904Y-152976190D01*
X67535714Y-153452380D02*
X66964285Y-153452380D01*
X67250000Y-153452380D02*
X67250000Y-152452380D01*
X67154761Y-152595238D01*
X67059523Y-152690476D01*
X66964285Y-152738095D01*
X39011904Y-120022380D02*
X39011904Y-119022380D01*
X39250000Y-119022380D01*
X39392857Y-119070000D01*
X39488095Y-119165238D01*
X39535714Y-119260476D01*
X39583333Y-119450952D01*
X39583333Y-119593809D01*
X39535714Y-119784285D01*
X39488095Y-119879523D01*
X39392857Y-119974761D01*
X39250000Y-120022380D01*
X39011904Y-120022380D01*
X39916666Y-119022380D02*
X40535714Y-119022380D01*
X40202380Y-119403333D01*
X40345238Y-119403333D01*
X40440476Y-119450952D01*
X40488095Y-119498571D01*
X40535714Y-119593809D01*
X40535714Y-119831904D01*
X40488095Y-119927142D01*
X40440476Y-119974761D01*
X40345238Y-120022380D01*
X40059523Y-120022380D01*
X39964285Y-119974761D01*
X39916666Y-119927142D01*
X39011904Y-124772380D02*
X39011904Y-123772380D01*
X39250000Y-123772380D01*
X39392857Y-123820000D01*
X39488095Y-123915238D01*
X39535714Y-124010476D01*
X39583333Y-124200952D01*
X39583333Y-124343809D01*
X39535714Y-124534285D01*
X39488095Y-124629523D01*
X39392857Y-124724761D01*
X39250000Y-124772380D01*
X39011904Y-124772380D01*
X40440476Y-124105714D02*
X40440476Y-124772380D01*
X40202380Y-123724761D02*
X39964285Y-124439047D01*
X40583333Y-124439047D01*
X39011904Y-129772380D02*
X39011904Y-128772380D01*
X39250000Y-128772380D01*
X39392857Y-128820000D01*
X39488095Y-128915238D01*
X39535714Y-129010476D01*
X39583333Y-129200952D01*
X39583333Y-129343809D01*
X39535714Y-129534285D01*
X39488095Y-129629523D01*
X39392857Y-129724761D01*
X39250000Y-129772380D01*
X39011904Y-129772380D01*
X40488095Y-128772380D02*
X40011904Y-128772380D01*
X39964285Y-129248571D01*
X40011904Y-129200952D01*
X40107142Y-129153333D01*
X40345238Y-129153333D01*
X40440476Y-129200952D01*
X40488095Y-129248571D01*
X40535714Y-129343809D01*
X40535714Y-129581904D01*
X40488095Y-129677142D01*
X40440476Y-129724761D01*
X40345238Y-129772380D01*
X40107142Y-129772380D01*
X40011904Y-129724761D01*
X39964285Y-129677142D01*
X43333333Y-120022380D02*
X43000000Y-119546190D01*
X42761904Y-120022380D02*
X42761904Y-119022380D01*
X43142857Y-119022380D01*
X43238095Y-119070000D01*
X43285714Y-119117619D01*
X43333333Y-119212857D01*
X43333333Y-119355714D01*
X43285714Y-119450952D01*
X43238095Y-119498571D01*
X43142857Y-119546190D01*
X42761904Y-119546190D01*
X43714285Y-119117619D02*
X43761904Y-119070000D01*
X43857142Y-119022380D01*
X44095238Y-119022380D01*
X44190476Y-119070000D01*
X44238095Y-119117619D01*
X44285714Y-119212857D01*
X44285714Y-119308095D01*
X44238095Y-119450952D01*
X43666666Y-120022380D01*
X44285714Y-120022380D01*
X43333333Y-124772380D02*
X43000000Y-124296190D01*
X42761904Y-124772380D02*
X42761904Y-123772380D01*
X43142857Y-123772380D01*
X43238095Y-123820000D01*
X43285714Y-123867619D01*
X43333333Y-123962857D01*
X43333333Y-124105714D01*
X43285714Y-124200952D01*
X43238095Y-124248571D01*
X43142857Y-124296190D01*
X42761904Y-124296190D01*
X43666666Y-123772380D02*
X44285714Y-123772380D01*
X43952380Y-124153333D01*
X44095238Y-124153333D01*
X44190476Y-124200952D01*
X44238095Y-124248571D01*
X44285714Y-124343809D01*
X44285714Y-124581904D01*
X44238095Y-124677142D01*
X44190476Y-124724761D01*
X44095238Y-124772380D01*
X43809523Y-124772380D01*
X43714285Y-124724761D01*
X43666666Y-124677142D01*
X43333333Y-129772380D02*
X43000000Y-129296190D01*
X42761904Y-129772380D02*
X42761904Y-128772380D01*
X43142857Y-128772380D01*
X43238095Y-128820000D01*
X43285714Y-128867619D01*
X43333333Y-128962857D01*
X43333333Y-129105714D01*
X43285714Y-129200952D01*
X43238095Y-129248571D01*
X43142857Y-129296190D01*
X42761904Y-129296190D01*
X44190476Y-129105714D02*
X44190476Y-129772380D01*
X43952380Y-128724761D02*
X43714285Y-129439047D01*
X44333333Y-129439047D01*
X79833333Y-146327142D02*
X79785714Y-146374761D01*
X79642857Y-146422380D01*
X79547619Y-146422380D01*
X79404761Y-146374761D01*
X79309523Y-146279523D01*
X79261904Y-146184285D01*
X79214285Y-145993809D01*
X79214285Y-145850952D01*
X79261904Y-145660476D01*
X79309523Y-145565238D01*
X79404761Y-145470000D01*
X79547619Y-145422380D01*
X79642857Y-145422380D01*
X79785714Y-145470000D01*
X79833333Y-145517619D01*
X80785714Y-146422380D02*
X80214285Y-146422380D01*
X80500000Y-146422380D02*
X80500000Y-145422380D01*
X80404761Y-145565238D01*
X80309523Y-145660476D01*
X80214285Y-145708095D01*
X76333333Y-151857142D02*
X76285714Y-151904761D01*
X76142857Y-151952380D01*
X76047619Y-151952380D01*
X75904761Y-151904761D01*
X75809523Y-151809523D01*
X75761904Y-151714285D01*
X75714285Y-151523809D01*
X75714285Y-151380952D01*
X75761904Y-151190476D01*
X75809523Y-151095238D01*
X75904761Y-151000000D01*
X76047619Y-150952380D01*
X76142857Y-150952380D01*
X76285714Y-151000000D01*
X76333333Y-151047619D01*
X76714285Y-151047619D02*
X76761904Y-151000000D01*
X76857142Y-150952380D01*
X77095238Y-150952380D01*
X77190476Y-151000000D01*
X77238095Y-151047619D01*
X77285714Y-151142857D01*
X77285714Y-151238095D01*
X77238095Y-151380952D01*
X76666666Y-151952380D01*
X77285714Y-151952380D01*
X73333333Y-140207142D02*
X73285714Y-140254761D01*
X73142857Y-140302380D01*
X73047619Y-140302380D01*
X72904761Y-140254761D01*
X72809523Y-140159523D01*
X72761904Y-140064285D01*
X72714285Y-139873809D01*
X72714285Y-139730952D01*
X72761904Y-139540476D01*
X72809523Y-139445238D01*
X72904761Y-139350000D01*
X73047619Y-139302380D01*
X73142857Y-139302380D01*
X73285714Y-139350000D01*
X73333333Y-139397619D01*
X73666666Y-139302380D02*
X74285714Y-139302380D01*
X73952380Y-139683333D01*
X74095238Y-139683333D01*
X74190476Y-139730952D01*
X74238095Y-139778571D01*
X74285714Y-139873809D01*
X74285714Y-140111904D01*
X74238095Y-140207142D01*
X74190476Y-140254761D01*
X74095238Y-140302380D01*
X73809523Y-140302380D01*
X73714285Y-140254761D01*
X73666666Y-140207142D01*
X66757142Y-113666666D02*
X66804761Y-113714285D01*
X66852380Y-113857142D01*
X66852380Y-113952380D01*
X66804761Y-114095238D01*
X66709523Y-114190476D01*
X66614285Y-114238095D01*
X66423809Y-114285714D01*
X66280952Y-114285714D01*
X66090476Y-114238095D01*
X65995238Y-114190476D01*
X65900000Y-114095238D01*
X65852380Y-113952380D01*
X65852380Y-113857142D01*
X65900000Y-113714285D01*
X65947619Y-113666666D01*
X66185714Y-112809523D02*
X66852380Y-112809523D01*
X65804761Y-113047619D02*
X66519047Y-113285714D01*
X66519047Y-112666666D01*
X70257142Y-113666666D02*
X70304761Y-113714285D01*
X70352380Y-113857142D01*
X70352380Y-113952380D01*
X70304761Y-114095238D01*
X70209523Y-114190476D01*
X70114285Y-114238095D01*
X69923809Y-114285714D01*
X69780952Y-114285714D01*
X69590476Y-114238095D01*
X69495238Y-114190476D01*
X69400000Y-114095238D01*
X69352380Y-113952380D01*
X69352380Y-113857142D01*
X69400000Y-113714285D01*
X69447619Y-113666666D01*
X69352380Y-112761904D02*
X69352380Y-113238095D01*
X69828571Y-113285714D01*
X69780952Y-113238095D01*
X69733333Y-113142857D01*
X69733333Y-112904761D01*
X69780952Y-112809523D01*
X69828571Y-112761904D01*
X69923809Y-112714285D01*
X70161904Y-112714285D01*
X70257142Y-112761904D01*
X70304761Y-112809523D01*
X70352380Y-112904761D01*
X70352380Y-113142857D01*
X70304761Y-113238095D01*
X70257142Y-113285714D01*
X75857142Y-123166666D02*
X75904761Y-123214285D01*
X75952380Y-123357142D01*
X75952380Y-123452380D01*
X75904761Y-123595238D01*
X75809523Y-123690476D01*
X75714285Y-123738095D01*
X75523809Y-123785714D01*
X75380952Y-123785714D01*
X75190476Y-123738095D01*
X75095238Y-123690476D01*
X75000000Y-123595238D01*
X74952380Y-123452380D01*
X74952380Y-123357142D01*
X75000000Y-123214285D01*
X75047619Y-123166666D01*
X75380952Y-122595238D02*
X75333333Y-122690476D01*
X75285714Y-122738095D01*
X75190476Y-122785714D01*
X75142857Y-122785714D01*
X75047619Y-122738095D01*
X75000000Y-122690476D01*
X74952380Y-122595238D01*
X74952380Y-122404761D01*
X75000000Y-122309523D01*
X75047619Y-122261904D01*
X75142857Y-122214285D01*
X75190476Y-122214285D01*
X75285714Y-122261904D01*
X75333333Y-122309523D01*
X75380952Y-122404761D01*
X75380952Y-122595238D01*
X75428571Y-122690476D01*
X75476190Y-122738095D01*
X75571428Y-122785714D01*
X75761904Y-122785714D01*
X75857142Y-122738095D01*
X75904761Y-122690476D01*
X75952380Y-122595238D01*
X75952380Y-122404761D01*
X75904761Y-122309523D01*
X75857142Y-122261904D01*
X75761904Y-122214285D01*
X75571428Y-122214285D01*
X75476190Y-122261904D01*
X75428571Y-122309523D01*
X75380952Y-122404761D01*
X68833333Y-133107142D02*
X68785714Y-133154761D01*
X68642857Y-133202380D01*
X68547619Y-133202380D01*
X68404761Y-133154761D01*
X68309523Y-133059523D01*
X68261904Y-132964285D01*
X68214285Y-132773809D01*
X68214285Y-132630952D01*
X68261904Y-132440476D01*
X68309523Y-132345238D01*
X68404761Y-132250000D01*
X68547619Y-132202380D01*
X68642857Y-132202380D01*
X68785714Y-132250000D01*
X68833333Y-132297619D01*
X69309523Y-133202380D02*
X69500000Y-133202380D01*
X69595238Y-133154761D01*
X69642857Y-133107142D01*
X69738095Y-132964285D01*
X69785714Y-132773809D01*
X69785714Y-132392857D01*
X69738095Y-132297619D01*
X69690476Y-132250000D01*
X69595238Y-132202380D01*
X69404761Y-132202380D01*
X69309523Y-132250000D01*
X69261904Y-132297619D01*
X69214285Y-132392857D01*
X69214285Y-132630952D01*
X69261904Y-132726190D01*
X69309523Y-132773809D01*
X69404761Y-132821428D01*
X69595238Y-132821428D01*
X69690476Y-132773809D01*
X69738095Y-132726190D01*
X69785714Y-132630952D01*
X84907142Y-111792857D02*
X84954761Y-111840476D01*
X85002380Y-111983333D01*
X85002380Y-112078571D01*
X84954761Y-112221428D01*
X84859523Y-112316666D01*
X84764285Y-112364285D01*
X84573809Y-112411904D01*
X84430952Y-112411904D01*
X84240476Y-112364285D01*
X84145238Y-112316666D01*
X84050000Y-112221428D01*
X84002380Y-112078571D01*
X84002380Y-111983333D01*
X84050000Y-111840476D01*
X84097619Y-111792857D01*
X85002380Y-110840476D02*
X85002380Y-111411904D01*
X85002380Y-111126190D02*
X84002380Y-111126190D01*
X84145238Y-111221428D01*
X84240476Y-111316666D01*
X84288095Y-111411904D01*
X84002380Y-110221428D02*
X84002380Y-110126190D01*
X84050000Y-110030952D01*
X84097619Y-109983333D01*
X84192857Y-109935714D01*
X84383333Y-109888095D01*
X84621428Y-109888095D01*
X84811904Y-109935714D01*
X84907142Y-109983333D01*
X84954761Y-110030952D01*
X85002380Y-110126190D01*
X85002380Y-110221428D01*
X84954761Y-110316666D01*
X84907142Y-110364285D01*
X84811904Y-110411904D01*
X84621428Y-110459523D01*
X84383333Y-110459523D01*
X84192857Y-110411904D01*
X84097619Y-110364285D01*
X84050000Y-110316666D01*
X84002380Y-110221428D01*
X80907142Y-111842857D02*
X80954761Y-111890476D01*
X81002380Y-112033333D01*
X81002380Y-112128571D01*
X80954761Y-112271428D01*
X80859523Y-112366666D01*
X80764285Y-112414285D01*
X80573809Y-112461904D01*
X80430952Y-112461904D01*
X80240476Y-112414285D01*
X80145238Y-112366666D01*
X80050000Y-112271428D01*
X80002380Y-112128571D01*
X80002380Y-112033333D01*
X80050000Y-111890476D01*
X80097619Y-111842857D01*
X81002380Y-110890476D02*
X81002380Y-111461904D01*
X81002380Y-111176190D02*
X80002380Y-111176190D01*
X80145238Y-111271428D01*
X80240476Y-111366666D01*
X80288095Y-111461904D01*
X81002380Y-109938095D02*
X81002380Y-110509523D01*
X81002380Y-110223809D02*
X80002380Y-110223809D01*
X80145238Y-110319047D01*
X80240476Y-110414285D01*
X80288095Y-110509523D01*
X79761904Y-140702380D02*
X79761904Y-139702380D01*
X80000000Y-139702380D01*
X80142857Y-139750000D01*
X80238095Y-139845238D01*
X80285714Y-139940476D01*
X80333333Y-140130952D01*
X80333333Y-140273809D01*
X80285714Y-140464285D01*
X80238095Y-140559523D01*
X80142857Y-140654761D01*
X80000000Y-140702380D01*
X79761904Y-140702380D01*
X81285714Y-140702380D02*
X80714285Y-140702380D01*
X81000000Y-140702380D02*
X81000000Y-139702380D01*
X80904761Y-139845238D01*
X80809523Y-139940476D01*
X80714285Y-139988095D01*
D15*
X78760238Y-130574523D02*
X78760238Y-129304523D01*
X80090714Y-130453571D02*
X80030238Y-130514047D01*
X79848809Y-130574523D01*
X79727857Y-130574523D01*
X79546428Y-130514047D01*
X79425476Y-130393095D01*
X79365000Y-130272142D01*
X79304523Y-130030238D01*
X79304523Y-129848809D01*
X79365000Y-129606904D01*
X79425476Y-129485952D01*
X79546428Y-129365000D01*
X79727857Y-129304523D01*
X79848809Y-129304523D01*
X80030238Y-129365000D01*
X80090714Y-129425476D01*
X81300238Y-130574523D02*
X80574523Y-130574523D01*
X80937380Y-130574523D02*
X80937380Y-129304523D01*
X80816428Y-129485952D01*
X80695476Y-129606904D01*
X80574523Y-129667380D01*
X55510238Y-110324523D02*
X55510238Y-109054523D01*
X56840714Y-110203571D02*
X56780238Y-110264047D01*
X56598809Y-110324523D01*
X56477857Y-110324523D01*
X56296428Y-110264047D01*
X56175476Y-110143095D01*
X56115000Y-110022142D01*
X56054523Y-109780238D01*
X56054523Y-109598809D01*
X56115000Y-109356904D01*
X56175476Y-109235952D01*
X56296428Y-109115000D01*
X56477857Y-109054523D01*
X56598809Y-109054523D01*
X56780238Y-109115000D01*
X56840714Y-109175476D01*
X57324523Y-109175476D02*
X57385000Y-109115000D01*
X57505952Y-109054523D01*
X57808333Y-109054523D01*
X57929285Y-109115000D01*
X57989761Y-109175476D01*
X58050238Y-109296428D01*
X58050238Y-109417380D01*
X57989761Y-109598809D01*
X57264047Y-110324523D01*
X58050238Y-110324523D01*
D11*
X54516666Y-98878571D02*
X54659523Y-98926190D01*
X54707142Y-98973809D01*
X54754761Y-99069047D01*
X54754761Y-99211904D01*
X54707142Y-99307142D01*
X54659523Y-99354761D01*
X54564285Y-99402380D01*
X54183333Y-99402380D01*
X54183333Y-98402380D01*
X54516666Y-98402380D01*
X54611904Y-98450000D01*
X54659523Y-98497619D01*
X54707142Y-98592857D01*
X54707142Y-98688095D01*
X54659523Y-98783333D01*
X54611904Y-98830952D01*
X54516666Y-98878571D01*
X54183333Y-98878571D01*
X55373809Y-98402380D02*
X55564285Y-98402380D01*
X55659523Y-98450000D01*
X55754761Y-98545238D01*
X55802380Y-98735714D01*
X55802380Y-99069047D01*
X55754761Y-99259523D01*
X55659523Y-99354761D01*
X55564285Y-99402380D01*
X55373809Y-99402380D01*
X55278571Y-99354761D01*
X55183333Y-99259523D01*
X55135714Y-99069047D01*
X55135714Y-98735714D01*
X55183333Y-98545238D01*
X55278571Y-98450000D01*
X55373809Y-98402380D01*
X56421428Y-98402380D02*
X56611904Y-98402380D01*
X56707142Y-98450000D01*
X56802380Y-98545238D01*
X56850000Y-98735714D01*
X56850000Y-99069047D01*
X56802380Y-99259523D01*
X56707142Y-99354761D01*
X56611904Y-99402380D01*
X56421428Y-99402380D01*
X56326190Y-99354761D01*
X56230952Y-99259523D01*
X56183333Y-99069047D01*
X56183333Y-98735714D01*
X56230952Y-98545238D01*
X56326190Y-98450000D01*
X56421428Y-98402380D01*
X57135714Y-98402380D02*
X57707142Y-98402380D01*
X57421428Y-99402380D02*
X57421428Y-98402380D01*
X58230952Y-98402380D02*
X58326190Y-98402380D01*
X58421428Y-98450000D01*
X58469047Y-98497619D01*
X58516666Y-98592857D01*
X58564285Y-98783333D01*
X58564285Y-99021428D01*
X58516666Y-99211904D01*
X58469047Y-99307142D01*
X58421428Y-99354761D01*
X58326190Y-99402380D01*
X58230952Y-99402380D01*
X58135714Y-99354761D01*
X58088095Y-99307142D01*
X58040476Y-99211904D01*
X57992857Y-99021428D01*
X57992857Y-98783333D01*
X58040476Y-98592857D01*
X58088095Y-98497619D01*
X58135714Y-98450000D01*
X58230952Y-98402380D01*
X86952380Y-125333333D02*
X87666666Y-125333333D01*
X87809523Y-125380952D01*
X87904761Y-125476190D01*
X87952380Y-125619047D01*
X87952380Y-125714285D01*
X87952380Y-124857142D02*
X86952380Y-124857142D01*
X86952380Y-124476190D01*
X87000000Y-124380952D01*
X87047619Y-124333333D01*
X87142857Y-124285714D01*
X87285714Y-124285714D01*
X87380952Y-124333333D01*
X87428571Y-124380952D01*
X87476190Y-124476190D01*
X87476190Y-124857142D01*
X87047619Y-123904761D02*
X87000000Y-123857142D01*
X86952380Y-123761904D01*
X86952380Y-123523809D01*
X87000000Y-123428571D01*
X87047619Y-123380952D01*
X87142857Y-123333333D01*
X87238095Y-123333333D01*
X87380952Y-123380952D01*
X87952380Y-123952380D01*
X87952380Y-123333333D01*
X67583333Y-122952380D02*
X67107142Y-122952380D01*
X67107142Y-121952380D01*
X68440476Y-122952380D02*
X67869047Y-122952380D01*
X68154761Y-122952380D02*
X68154761Y-121952380D01*
X68059523Y-122095238D01*
X67964285Y-122190476D01*
X67869047Y-122238095D01*
D15*
X74445476Y-114620952D02*
X74385000Y-114741904D01*
X74264047Y-114862857D01*
X74082619Y-115044285D01*
X74022142Y-115165238D01*
X74022142Y-115286190D01*
X74324523Y-115225714D02*
X74264047Y-115346666D01*
X74143095Y-115467619D01*
X73901190Y-115528095D01*
X73477857Y-115528095D01*
X73235952Y-115467619D01*
X73115000Y-115346666D01*
X73054523Y-115225714D01*
X73054523Y-114983809D01*
X73115000Y-114862857D01*
X73235952Y-114741904D01*
X73477857Y-114681428D01*
X73901190Y-114681428D01*
X74143095Y-114741904D01*
X74264047Y-114862857D01*
X74324523Y-114983809D01*
X74324523Y-115225714D01*
X74324523Y-113471904D02*
X74324523Y-114197619D01*
X74324523Y-113834761D02*
X73054523Y-113834761D01*
X73235952Y-113955714D01*
X73356904Y-114076666D01*
X73417380Y-114197619D01*
D11*
X72452380Y-120916666D02*
X71976190Y-121250000D01*
X72452380Y-121488095D02*
X71452380Y-121488095D01*
X71452380Y-121107142D01*
X71500000Y-121011904D01*
X71547619Y-120964285D01*
X71642857Y-120916666D01*
X71785714Y-120916666D01*
X71880952Y-120964285D01*
X71928571Y-121011904D01*
X71976190Y-121107142D01*
X71976190Y-121488095D01*
X71452380Y-120011904D02*
X71452380Y-120488095D01*
X71928571Y-120535714D01*
X71880952Y-120488095D01*
X71833333Y-120392857D01*
X71833333Y-120154761D01*
X71880952Y-120059523D01*
X71928571Y-120011904D01*
X72023809Y-119964285D01*
X72261904Y-119964285D01*
X72357142Y-120011904D01*
X72404761Y-120059523D01*
X72452380Y-120154761D01*
X72452380Y-120392857D01*
X72404761Y-120488095D01*
X72357142Y-120535714D01*
X74202380Y-128666666D02*
X73726190Y-129000000D01*
X74202380Y-129238095D02*
X73202380Y-129238095D01*
X73202380Y-128857142D01*
X73250000Y-128761904D01*
X73297619Y-128714285D01*
X73392857Y-128666666D01*
X73535714Y-128666666D01*
X73630952Y-128714285D01*
X73678571Y-128761904D01*
X73726190Y-128857142D01*
X73726190Y-129238095D01*
X73202380Y-127809523D02*
X73202380Y-128000000D01*
X73250000Y-128095238D01*
X73297619Y-128142857D01*
X73440476Y-128238095D01*
X73630952Y-128285714D01*
X74011904Y-128285714D01*
X74107142Y-128238095D01*
X74154761Y-128190476D01*
X74202380Y-128095238D01*
X74202380Y-127904761D01*
X74154761Y-127809523D01*
X74107142Y-127761904D01*
X74011904Y-127714285D01*
X73773809Y-127714285D01*
X73678571Y-127761904D01*
X73630952Y-127809523D01*
X73583333Y-127904761D01*
X73583333Y-128095238D01*
X73630952Y-128190476D01*
X73678571Y-128238095D01*
X73773809Y-128285714D01*
X66702380Y-126166666D02*
X66226190Y-126500000D01*
X66702380Y-126738095D02*
X65702380Y-126738095D01*
X65702380Y-126357142D01*
X65750000Y-126261904D01*
X65797619Y-126214285D01*
X65892857Y-126166666D01*
X66035714Y-126166666D01*
X66130952Y-126214285D01*
X66178571Y-126261904D01*
X66226190Y-126357142D01*
X66226190Y-126738095D01*
X66130952Y-125595238D02*
X66083333Y-125690476D01*
X66035714Y-125738095D01*
X65940476Y-125785714D01*
X65892857Y-125785714D01*
X65797619Y-125738095D01*
X65750000Y-125690476D01*
X65702380Y-125595238D01*
X65702380Y-125404761D01*
X65750000Y-125309523D01*
X65797619Y-125261904D01*
X65892857Y-125214285D01*
X65940476Y-125214285D01*
X66035714Y-125261904D01*
X66083333Y-125309523D01*
X66130952Y-125404761D01*
X66130952Y-125595238D01*
X66178571Y-125690476D01*
X66226190Y-125738095D01*
X66321428Y-125785714D01*
X66511904Y-125785714D01*
X66607142Y-125738095D01*
X66654761Y-125690476D01*
X66702380Y-125595238D01*
X66702380Y-125404761D01*
X66654761Y-125309523D01*
X66607142Y-125261904D01*
X66511904Y-125214285D01*
X66321428Y-125214285D01*
X66226190Y-125261904D01*
X66178571Y-125309523D01*
X66130952Y-125404761D01*
X88452380Y-113416666D02*
X87976190Y-113750000D01*
X88452380Y-113988095D02*
X87452380Y-113988095D01*
X87452380Y-113607142D01*
X87500000Y-113511904D01*
X87547619Y-113464285D01*
X87642857Y-113416666D01*
X87785714Y-113416666D01*
X87880952Y-113464285D01*
X87928571Y-113511904D01*
X87976190Y-113607142D01*
X87976190Y-113988095D01*
X88452380Y-112940476D02*
X88452380Y-112750000D01*
X88404761Y-112654761D01*
X88357142Y-112607142D01*
X88214285Y-112511904D01*
X88023809Y-112464285D01*
X87642857Y-112464285D01*
X87547619Y-112511904D01*
X87500000Y-112559523D01*
X87452380Y-112654761D01*
X87452380Y-112845238D01*
X87500000Y-112940476D01*
X87547619Y-112988095D01*
X87642857Y-113035714D01*
X87880952Y-113035714D01*
X87976190Y-112988095D01*
X88023809Y-112940476D01*
X88071428Y-112845238D01*
X88071428Y-112654761D01*
X88023809Y-112559523D01*
X87976190Y-112511904D01*
X87880952Y-112464285D01*
X70452380Y-147261904D02*
X71261904Y-147261904D01*
X71357142Y-147214285D01*
X71404761Y-147166666D01*
X71452380Y-147071428D01*
X71452380Y-146880952D01*
X71404761Y-146785714D01*
X71357142Y-146738095D01*
X71261904Y-146690476D01*
X70452380Y-146690476D01*
X71452380Y-145690476D02*
X71452380Y-146261904D01*
X71452380Y-145976190D02*
X70452380Y-145976190D01*
X70595238Y-146071428D01*
X70690476Y-146166666D01*
X70738095Y-146261904D01*
X54357142Y-122022380D02*
X54023809Y-121546190D01*
X53785714Y-122022380D02*
X53785714Y-121022380D01*
X54166666Y-121022380D01*
X54261904Y-121070000D01*
X54309523Y-121117619D01*
X54357142Y-121212857D01*
X54357142Y-121355714D01*
X54309523Y-121450952D01*
X54261904Y-121498571D01*
X54166666Y-121546190D01*
X53785714Y-121546190D01*
X55309523Y-122022380D02*
X54738095Y-122022380D01*
X55023809Y-122022380D02*
X55023809Y-121022380D01*
X54928571Y-121165238D01*
X54833333Y-121260476D01*
X54738095Y-121308095D01*
X55690476Y-121117619D02*
X55738095Y-121070000D01*
X55833333Y-121022380D01*
X56071428Y-121022380D01*
X56166666Y-121070000D01*
X56214285Y-121117619D01*
X56261904Y-121212857D01*
X56261904Y-121308095D01*
X56214285Y-121450952D01*
X55642857Y-122022380D01*
X56261904Y-122022380D01*
X54357142Y-125772380D02*
X54023809Y-125296190D01*
X53785714Y-125772380D02*
X53785714Y-124772380D01*
X54166666Y-124772380D01*
X54261904Y-124820000D01*
X54309523Y-124867619D01*
X54357142Y-124962857D01*
X54357142Y-125105714D01*
X54309523Y-125200952D01*
X54261904Y-125248571D01*
X54166666Y-125296190D01*
X53785714Y-125296190D01*
X55309523Y-125772380D02*
X54738095Y-125772380D01*
X55023809Y-125772380D02*
X55023809Y-124772380D01*
X54928571Y-124915238D01*
X54833333Y-125010476D01*
X54738095Y-125058095D01*
X55642857Y-124772380D02*
X56261904Y-124772380D01*
X55928571Y-125153333D01*
X56071428Y-125153333D01*
X56166666Y-125200952D01*
X56214285Y-125248571D01*
X56261904Y-125343809D01*
X56261904Y-125581904D01*
X56214285Y-125677142D01*
X56166666Y-125724761D01*
X56071428Y-125772380D01*
X55785714Y-125772380D01*
X55690476Y-125724761D01*
X55642857Y-125677142D01*
X52607142Y-96492857D02*
X52654761Y-96540476D01*
X52702380Y-96683333D01*
X52702380Y-96778571D01*
X52654761Y-96921428D01*
X52559523Y-97016666D01*
X52464285Y-97064285D01*
X52273809Y-97111904D01*
X52130952Y-97111904D01*
X51940476Y-97064285D01*
X51845238Y-97016666D01*
X51750000Y-96921428D01*
X51702380Y-96778571D01*
X51702380Y-96683333D01*
X51750000Y-96540476D01*
X51797619Y-96492857D01*
X52702380Y-95540476D02*
X52702380Y-96111904D01*
X52702380Y-95826190D02*
X51702380Y-95826190D01*
X51845238Y-95921428D01*
X51940476Y-96016666D01*
X51988095Y-96111904D01*
X51797619Y-95159523D02*
X51750000Y-95111904D01*
X51702380Y-95016666D01*
X51702380Y-94778571D01*
X51750000Y-94683333D01*
X51797619Y-94635714D01*
X51892857Y-94588095D01*
X51988095Y-94588095D01*
X52130952Y-94635714D01*
X52702380Y-95207142D01*
X52702380Y-94588095D01*
X46357142Y-104057142D02*
X46309523Y-104104761D01*
X46166666Y-104152380D01*
X46071428Y-104152380D01*
X45928571Y-104104761D01*
X45833333Y-104009523D01*
X45785714Y-103914285D01*
X45738095Y-103723809D01*
X45738095Y-103580952D01*
X45785714Y-103390476D01*
X45833333Y-103295238D01*
X45928571Y-103200000D01*
X46071428Y-103152380D01*
X46166666Y-103152380D01*
X46309523Y-103200000D01*
X46357142Y-103247619D01*
X47309523Y-104152380D02*
X46738095Y-104152380D01*
X47023809Y-104152380D02*
X47023809Y-103152380D01*
X46928571Y-103295238D01*
X46833333Y-103390476D01*
X46738095Y-103438095D01*
X47642857Y-103152380D02*
X48261904Y-103152380D01*
X47928571Y-103533333D01*
X48071428Y-103533333D01*
X48166666Y-103580952D01*
X48214285Y-103628571D01*
X48261904Y-103723809D01*
X48261904Y-103961904D01*
X48214285Y-104057142D01*
X48166666Y-104104761D01*
X48071428Y-104152380D01*
X47785714Y-104152380D01*
X47690476Y-104104761D01*
X47642857Y-104057142D01*
X43402380Y-100392857D02*
X42926190Y-100726190D01*
X43402380Y-100964285D02*
X42402380Y-100964285D01*
X42402380Y-100583333D01*
X42450000Y-100488095D01*
X42497619Y-100440476D01*
X42592857Y-100392857D01*
X42735714Y-100392857D01*
X42830952Y-100440476D01*
X42878571Y-100488095D01*
X42926190Y-100583333D01*
X42926190Y-100964285D01*
X43402380Y-99440476D02*
X43402380Y-100011904D01*
X43402380Y-99726190D02*
X42402380Y-99726190D01*
X42545238Y-99821428D01*
X42640476Y-99916666D01*
X42688095Y-100011904D01*
X42402380Y-98535714D02*
X42402380Y-99011904D01*
X42878571Y-99059523D01*
X42830952Y-99011904D01*
X42783333Y-98916666D01*
X42783333Y-98678571D01*
X42830952Y-98583333D01*
X42878571Y-98535714D01*
X42973809Y-98488095D01*
X43211904Y-98488095D01*
X43307142Y-98535714D01*
X43354761Y-98583333D01*
X43402380Y-98678571D01*
X43402380Y-98916666D01*
X43354761Y-99011904D01*
X43307142Y-99059523D01*
X47625095Y-94850380D02*
X47625095Y-95659904D01*
X47672714Y-95755142D01*
X47720333Y-95802761D01*
X47815571Y-95850380D01*
X48006047Y-95850380D01*
X48101285Y-95802761D01*
X48148904Y-95755142D01*
X48196523Y-95659904D01*
X48196523Y-94850380D01*
X48625095Y-94945619D02*
X48672714Y-94898000D01*
X48767952Y-94850380D01*
X49006047Y-94850380D01*
X49101285Y-94898000D01*
X49148904Y-94945619D01*
X49196523Y-95040857D01*
X49196523Y-95136095D01*
X49148904Y-95278952D01*
X48577476Y-95850380D01*
X49196523Y-95850380D01*
X41516666Y-93352380D02*
X41516666Y-94066666D01*
X41469047Y-94209523D01*
X41373809Y-94304761D01*
X41230952Y-94352380D01*
X41135714Y-94352380D01*
X42135714Y-93780952D02*
X42040476Y-93733333D01*
X41992857Y-93685714D01*
X41945238Y-93590476D01*
X41945238Y-93542857D01*
X41992857Y-93447619D01*
X42040476Y-93400000D01*
X42135714Y-93352380D01*
X42326190Y-93352380D01*
X42421428Y-93400000D01*
X42469047Y-93447619D01*
X42516666Y-93542857D01*
X42516666Y-93590476D01*
X42469047Y-93685714D01*
X42421428Y-93733333D01*
X42326190Y-93780952D01*
X42135714Y-93780952D01*
X42040476Y-93828571D01*
X41992857Y-93876190D01*
X41945238Y-93971428D01*
X41945238Y-94161904D01*
X41992857Y-94257142D01*
X42040476Y-94304761D01*
X42135714Y-94352380D01*
X42326190Y-94352380D01*
X42421428Y-94304761D01*
X42469047Y-94257142D01*
X42516666Y-94161904D01*
X42516666Y-93971428D01*
X42469047Y-93876190D01*
X42421428Y-93828571D01*
X42326190Y-93780952D01*
M02*
