G04 #@! TF.GenerationSoftware,KiCad,Pcbnew,(5.1.5)-3*
G04 #@! TF.CreationDate,2020-02-16T17:30:40+02:00*
G04 #@! TF.ProjectId,flex_big,666c6578-5f62-4696-972e-6b696361645f,rev?*
G04 #@! TF.SameCoordinates,Original*
G04 #@! TF.FileFunction,Legend,Bot*
G04 #@! TF.FilePolarity,Positive*
%FSLAX46Y46*%
G04 Gerber Fmt 4.6, Leading zero omitted, Abs format (unit mm)*
G04 Created by KiCad (PCBNEW (5.1.5)-3) date 2020-02-16 17:30:40*
%MOMM*%
%LPD*%
G04 APERTURE LIST*
%ADD10C,0.150000*%
%ADD11C,0.300000*%
%ADD12C,0.120000*%
G04 APERTURE END LIST*
D10*
X137409523Y-131785714D02*
X137409523Y-132452380D01*
X137647619Y-131404761D02*
X137885714Y-132119047D01*
X137266666Y-132119047D01*
X137933333Y-127352380D02*
X137314285Y-127352380D01*
X137647619Y-127733333D01*
X137504761Y-127733333D01*
X137409523Y-127780952D01*
X137361904Y-127828571D01*
X137314285Y-127923809D01*
X137314285Y-128161904D01*
X137361904Y-128257142D01*
X137409523Y-128304761D01*
X137504761Y-128352380D01*
X137790476Y-128352380D01*
X137885714Y-128304761D01*
X137933333Y-128257142D01*
X142009523Y-130352380D02*
X142200000Y-130352380D01*
X142295238Y-130400000D01*
X142342857Y-130447619D01*
X142438095Y-130590476D01*
X142485714Y-130780952D01*
X142485714Y-131161904D01*
X142438095Y-131257142D01*
X142390476Y-131304761D01*
X142295238Y-131352380D01*
X142104761Y-131352380D01*
X142009523Y-131304761D01*
X141961904Y-131257142D01*
X141914285Y-131161904D01*
X141914285Y-130923809D01*
X141961904Y-130828571D01*
X142009523Y-130780952D01*
X142104761Y-130733333D01*
X142295238Y-130733333D01*
X142390476Y-130780952D01*
X142438095Y-130828571D01*
X142485714Y-130923809D01*
X141961904Y-124952380D02*
X142438095Y-124952380D01*
X142485714Y-125428571D01*
X142438095Y-125380952D01*
X142342857Y-125333333D01*
X142104761Y-125333333D01*
X142009523Y-125380952D01*
X141961904Y-125428571D01*
X141914285Y-125523809D01*
X141914285Y-125761904D01*
X141961904Y-125857142D01*
X142009523Y-125904761D01*
X142104761Y-125952380D01*
X142342857Y-125952380D01*
X142438095Y-125904761D01*
X142485714Y-125857142D01*
X135285714Y-124847619D02*
X135238095Y-124800000D01*
X135142857Y-124752380D01*
X134904761Y-124752380D01*
X134809523Y-124800000D01*
X134761904Y-124847619D01*
X134714285Y-124942857D01*
X134714285Y-125038095D01*
X134761904Y-125180952D01*
X135333333Y-125752380D01*
X134714285Y-125752380D01*
X134814285Y-131352380D02*
X135385714Y-131352380D01*
X135100000Y-131352380D02*
X135100000Y-130352380D01*
X135195238Y-130495238D01*
X135290476Y-130590476D01*
X135385714Y-130638095D01*
D11*
X268147619Y-143161904D02*
X269100000Y-143161904D01*
X269576190Y-143400000D01*
X269814285Y-143638095D01*
X270290476Y-144352380D01*
X270528571Y-145304761D01*
X270528571Y-147209523D01*
X270290476Y-147685714D01*
X270052380Y-147923809D01*
X269576190Y-148161904D01*
X268623809Y-148161904D01*
X268147619Y-147923809D01*
X267909523Y-147685714D01*
X267671428Y-147209523D01*
X267671428Y-146019047D01*
X267909523Y-145542857D01*
X268147619Y-145304761D01*
X268623809Y-145066666D01*
X269576190Y-145066666D01*
X270052380Y-145304761D01*
X270290476Y-145542857D01*
X270528571Y-146019047D01*
X218209523Y-143561904D02*
X220590476Y-143561904D01*
X220828571Y-145942857D01*
X220590476Y-145704761D01*
X220114285Y-145466666D01*
X218923809Y-145466666D01*
X218447619Y-145704761D01*
X218209523Y-145942857D01*
X217971428Y-146419047D01*
X217971428Y-147609523D01*
X218209523Y-148085714D01*
X218447619Y-148323809D01*
X218923809Y-148561904D01*
X220114285Y-148561904D01*
X220590476Y-148323809D01*
X220828571Y-148085714D01*
X172347619Y-145228571D02*
X172347619Y-148561904D01*
X173538095Y-143323809D02*
X174728571Y-146895238D01*
X171633333Y-146895238D01*
X127666666Y-143461904D02*
X124571428Y-143461904D01*
X126238095Y-145366666D01*
X125523809Y-145366666D01*
X125047619Y-145604761D01*
X124809523Y-145842857D01*
X124571428Y-146319047D01*
X124571428Y-147509523D01*
X124809523Y-147985714D01*
X125047619Y-148223809D01*
X125523809Y-148461904D01*
X126952380Y-148461904D01*
X127428571Y-148223809D01*
X127666666Y-147985714D01*
X82228571Y-143538095D02*
X81990476Y-143300000D01*
X81514285Y-143061904D01*
X80323809Y-143061904D01*
X79847619Y-143300000D01*
X79609523Y-143538095D01*
X79371428Y-144014285D01*
X79371428Y-144490476D01*
X79609523Y-145204761D01*
X82466666Y-148061904D01*
X79371428Y-148061904D01*
X35871428Y-147861904D02*
X38728571Y-147861904D01*
X37300000Y-147861904D02*
X37300000Y-142861904D01*
X37776190Y-143576190D01*
X38252380Y-144052380D01*
X38728571Y-144290476D01*
D12*
X63028733Y-152460000D02*
X63371267Y-152460000D01*
X63028733Y-151440000D02*
X63371267Y-151440000D01*
X19128733Y-151440000D02*
X19471267Y-151440000D01*
X19128733Y-152460000D02*
X19471267Y-152460000D01*
X109028733Y-152460000D02*
X109371267Y-152460000D01*
X109028733Y-151440000D02*
X109371267Y-151440000D01*
X195971267Y-152460000D02*
X195628733Y-152460000D01*
X195971267Y-151440000D02*
X195628733Y-151440000D01*
X241971267Y-151440000D02*
X241628733Y-151440000D01*
X241971267Y-152460000D02*
X241628733Y-152460000D01*
X289771267Y-152460000D02*
X289428733Y-152460000D01*
X289771267Y-151440000D02*
X289428733Y-151440000D01*
X135540000Y-126040000D02*
X135540000Y-130160000D01*
X141660000Y-126040000D02*
X141660000Y-130160000D01*
X135840000Y-124785000D02*
X135840000Y-126040000D01*
X135540000Y-126040000D02*
X135840000Y-126040000D01*
X135540000Y-130160000D02*
X135840000Y-130160000D01*
X141360000Y-126040000D02*
X141660000Y-126040000D01*
X141360000Y-130160000D02*
X141660000Y-130160000D01*
X137360000Y-126040000D02*
X137840000Y-126040000D01*
X137360000Y-130160000D02*
X137840000Y-130160000D01*
X139360000Y-126040000D02*
X139840000Y-126040000D01*
X139360000Y-130160000D02*
X139840000Y-130160000D01*
X137650000Y-134450000D02*
X139550000Y-134450000D01*
X139550000Y-134450000D02*
X139550000Y-132550000D01*
X139550000Y-132550000D02*
X137650000Y-132550000D01*
X137650000Y-132550000D02*
X137650000Y-134450000D01*
D10*
X139361904Y-134900000D02*
X139457142Y-134852380D01*
X139600000Y-134852380D01*
X139742857Y-134900000D01*
X139838095Y-134995238D01*
X139885714Y-135090476D01*
X139933333Y-135280952D01*
X139933333Y-135423809D01*
X139885714Y-135614285D01*
X139838095Y-135709523D01*
X139742857Y-135804761D01*
X139600000Y-135852380D01*
X139504761Y-135852380D01*
X139361904Y-135804761D01*
X139314285Y-135757142D01*
X139314285Y-135423809D01*
X139504761Y-135423809D01*
X138885714Y-135852380D02*
X138885714Y-134852380D01*
X138314285Y-135852380D01*
X138314285Y-134852380D01*
X137838095Y-135852380D02*
X137838095Y-134852380D01*
X137600000Y-134852380D01*
X137457142Y-134900000D01*
X137361904Y-134995238D01*
X137314285Y-135090476D01*
X137266666Y-135280952D01*
X137266666Y-135423809D01*
X137314285Y-135614285D01*
X137361904Y-135709523D01*
X137457142Y-135804761D01*
X137600000Y-135852380D01*
X137838095Y-135852380D01*
M02*
