G04 #@! TF.GenerationSoftware,KiCad,Pcbnew,(5.1.5)-3*
G04 #@! TF.CreationDate,2020-03-19T11:10:08+02:00*
G04 #@! TF.ProjectId,RightSidePanel,52696768-7453-4696-9465-50616e656c2e,rev?*
G04 #@! TF.SameCoordinates,Original*
G04 #@! TF.FileFunction,Legend,Top*
G04 #@! TF.FilePolarity,Positive*
%FSLAX46Y46*%
G04 Gerber Fmt 4.6, Leading zero omitted, Abs format (unit mm)*
G04 Created by KiCad (PCBNEW (5.1.5)-3) date 2020-03-19 11:10:08*
%MOMM*%
%LPD*%
G04 APERTURE LIST*
%ADD10C,0.200000*%
%ADD11C,0.100000*%
%ADD12C,0.254000*%
G04 APERTURE END LIST*
D10*
X86075000Y-136550000D02*
G75*
G03X86075000Y-136350000I0J100000D01*
G01*
X86075000Y-136350000D02*
G75*
G03X86075000Y-136550000I0J-100000D01*
G01*
X86075000Y-136350000D02*
X86075000Y-136350000D01*
X86075000Y-136550000D02*
X86075000Y-136550000D01*
D11*
X89375000Y-138250000D02*
X89375000Y-139250000D01*
X101375000Y-138250000D02*
X101385000Y-139250000D01*
X89380000Y-144750000D02*
X89380000Y-143250000D01*
X101385000Y-144750000D02*
X89380000Y-144750000D01*
X101375000Y-143250000D02*
X101385000Y-144750000D01*
X89375000Y-132750000D02*
X89375000Y-134250000D01*
X101385000Y-132750000D02*
X89375000Y-132750000D01*
X101385000Y-134250000D02*
X101385000Y-132750000D01*
D10*
X83925000Y-140950000D02*
G75*
G03X83925000Y-141150000I0J-100000D01*
G01*
X83925000Y-141150000D02*
G75*
G03X83925000Y-140950000I0J100000D01*
G01*
X83925000Y-141150000D02*
X83925000Y-141150000D01*
X83925000Y-140950000D02*
X83925000Y-140950000D01*
D11*
X80625000Y-139250000D02*
X80625000Y-138250000D01*
X68625000Y-139250000D02*
X68615000Y-138250000D01*
X80620000Y-132750000D02*
X80620000Y-134250000D01*
X68615000Y-132750000D02*
X80620000Y-132750000D01*
X68625000Y-134250000D02*
X68615000Y-132750000D01*
X80625000Y-144750000D02*
X80625000Y-143250000D01*
X68615000Y-144750000D02*
X80625000Y-144750000D01*
X68615000Y-143250000D02*
X68615000Y-144750000D01*
D12*
X93131666Y-139264047D02*
X93313095Y-139324523D01*
X93615476Y-139324523D01*
X93736428Y-139264047D01*
X93796904Y-139203571D01*
X93857380Y-139082619D01*
X93857380Y-138961666D01*
X93796904Y-138840714D01*
X93736428Y-138780238D01*
X93615476Y-138719761D01*
X93373571Y-138659285D01*
X93252619Y-138598809D01*
X93192142Y-138538333D01*
X93131666Y-138417380D01*
X93131666Y-138296428D01*
X93192142Y-138175476D01*
X93252619Y-138115000D01*
X93373571Y-138054523D01*
X93675952Y-138054523D01*
X93857380Y-138115000D01*
X94280714Y-138054523D02*
X94583095Y-139324523D01*
X94825000Y-138417380D01*
X95066904Y-139324523D01*
X95369285Y-138054523D01*
X95792619Y-138175476D02*
X95853095Y-138115000D01*
X95974047Y-138054523D01*
X96276428Y-138054523D01*
X96397380Y-138115000D01*
X96457857Y-138175476D01*
X96518333Y-138296428D01*
X96518333Y-138417380D01*
X96457857Y-138598809D01*
X95732142Y-139324523D01*
X96518333Y-139324523D01*
X73481666Y-139264047D02*
X73663095Y-139324523D01*
X73965476Y-139324523D01*
X74086428Y-139264047D01*
X74146904Y-139203571D01*
X74207380Y-139082619D01*
X74207380Y-138961666D01*
X74146904Y-138840714D01*
X74086428Y-138780238D01*
X73965476Y-138719761D01*
X73723571Y-138659285D01*
X73602619Y-138598809D01*
X73542142Y-138538333D01*
X73481666Y-138417380D01*
X73481666Y-138296428D01*
X73542142Y-138175476D01*
X73602619Y-138115000D01*
X73723571Y-138054523D01*
X74025952Y-138054523D01*
X74207380Y-138115000D01*
X74630714Y-138054523D02*
X74933095Y-139324523D01*
X75175000Y-138417380D01*
X75416904Y-139324523D01*
X75719285Y-138054523D01*
X76868333Y-139324523D02*
X76142619Y-139324523D01*
X76505476Y-139324523D02*
X76505476Y-138054523D01*
X76384523Y-138235952D01*
X76263571Y-138356904D01*
X76142619Y-138417380D01*
M02*
