G04 #@! TF.GenerationSoftware,KiCad,Pcbnew,(5.1.5)-3*
G04 #@! TF.CreationDate,2020-03-19T11:10:08+02:00*
G04 #@! TF.ProjectId,RightSidePanel,52696768-7453-4696-9465-50616e656c2e,rev?*
G04 #@! TF.SameCoordinates,Original*
G04 #@! TF.FileFunction,Legend,Bot*
G04 #@! TF.FilePolarity,Positive*
%FSLAX46Y46*%
G04 Gerber Fmt 4.6, Leading zero omitted, Abs format (unit mm)*
G04 Created by KiCad (PCBNEW (5.1.5)-3) date 2020-03-19 11:10:08*
%MOMM*%
%LPD*%
G04 APERTURE LIST*
%ADD10C,0.150000*%
%ADD11C,0.120000*%
G04 APERTURE END LIST*
D10*
X80011904Y-140750000D02*
X80107142Y-140702380D01*
X80250000Y-140702380D01*
X80392857Y-140750000D01*
X80488095Y-140845238D01*
X80535714Y-140940476D01*
X80583333Y-141130952D01*
X80583333Y-141273809D01*
X80535714Y-141464285D01*
X80488095Y-141559523D01*
X80392857Y-141654761D01*
X80250000Y-141702380D01*
X80154761Y-141702380D01*
X80011904Y-141654761D01*
X79964285Y-141607142D01*
X79964285Y-141273809D01*
X80154761Y-141273809D01*
X79535714Y-141702380D02*
X79535714Y-140702380D01*
X78964285Y-141702380D01*
X78964285Y-140702380D01*
X78488095Y-141702380D02*
X78488095Y-140702380D01*
X78250000Y-140702380D01*
X78107142Y-140750000D01*
X78011904Y-140845238D01*
X77964285Y-140940476D01*
X77916666Y-141130952D01*
X77916666Y-141273809D01*
X77964285Y-141464285D01*
X78011904Y-141559523D01*
X78107142Y-141654761D01*
X78250000Y-141702380D01*
X78488095Y-141702380D01*
D11*
X87610000Y-142740000D02*
X87610000Y-141790000D01*
X87610000Y-141790000D02*
X86660000Y-141790000D01*
X86660000Y-141790000D02*
X86660000Y-141100000D01*
X81890000Y-142740000D02*
X81890000Y-141790000D01*
X81890000Y-141790000D02*
X82840000Y-141790000D01*
X87240000Y-145710000D02*
X82260000Y-145710000D01*
D10*
X85083333Y-139352380D02*
X85083333Y-140066666D01*
X85130952Y-140209523D01*
X85226190Y-140304761D01*
X85369047Y-140352380D01*
X85464285Y-140352380D01*
X84083333Y-140352380D02*
X84654761Y-140352380D01*
X84369047Y-140352380D02*
X84369047Y-139352380D01*
X84464285Y-139495238D01*
X84559523Y-139590476D01*
X84654761Y-139638095D01*
M02*
