G04 #@! TF.GenerationSoftware,KiCad,Pcbnew,(5.1.5)-3*
G04 #@! TF.CreationDate,2020-03-19T11:24:29+02:00*
G04 #@! TF.ProjectId,LeftPanel,4c656674-5061-46e6-956c-2e6b69636164,rev?*
G04 #@! TF.SameCoordinates,Original*
G04 #@! TF.FileFunction,Paste,Bot*
G04 #@! TF.FilePolarity,Positive*
%FSLAX46Y46*%
G04 Gerber Fmt 4.6, Leading zero omitted, Abs format (unit mm)*
G04 Created by KiCad (PCBNEW (5.1.5)-3) date 2020-03-19 11:24:29*
%MOMM*%
%LPD*%
G04 APERTURE LIST*
%ADD10C,0.100000*%
G04 APERTURE END LIST*
D10*
G36*
X71019603Y-157100963D02*
G01*
X71039018Y-157103843D01*
X71058057Y-157108612D01*
X71076537Y-157115224D01*
X71094279Y-157123616D01*
X71111114Y-157133706D01*
X71126879Y-157145398D01*
X71141421Y-157158579D01*
X71154602Y-157173121D01*
X71166294Y-157188886D01*
X71176384Y-157205721D01*
X71184776Y-157223463D01*
X71191388Y-157241943D01*
X71196157Y-157260982D01*
X71199037Y-157280397D01*
X71200000Y-157300000D01*
X71200000Y-157700000D01*
X71199037Y-157719603D01*
X71196157Y-157739018D01*
X71191388Y-157758057D01*
X71184776Y-157776537D01*
X71176384Y-157794279D01*
X71166294Y-157811114D01*
X71154602Y-157826879D01*
X71141421Y-157841421D01*
X71126879Y-157854602D01*
X71111114Y-157866294D01*
X71094279Y-157876384D01*
X71076537Y-157884776D01*
X71058057Y-157891388D01*
X71039018Y-157896157D01*
X71019603Y-157899037D01*
X71000000Y-157900000D01*
X69800000Y-157900000D01*
X69780397Y-157899037D01*
X69760982Y-157896157D01*
X69741943Y-157891388D01*
X69723463Y-157884776D01*
X69705721Y-157876384D01*
X69688886Y-157866294D01*
X69673121Y-157854602D01*
X69658579Y-157841421D01*
X69645398Y-157826879D01*
X69633706Y-157811114D01*
X69623616Y-157794279D01*
X69615224Y-157776537D01*
X69608612Y-157758057D01*
X69603843Y-157739018D01*
X69600963Y-157719603D01*
X69600000Y-157700000D01*
X69600000Y-157300000D01*
X69600963Y-157280397D01*
X69603843Y-157260982D01*
X69608612Y-157241943D01*
X69615224Y-157223463D01*
X69623616Y-157205721D01*
X69633706Y-157188886D01*
X69645398Y-157173121D01*
X69658579Y-157158579D01*
X69673121Y-157145398D01*
X69688886Y-157133706D01*
X69705721Y-157123616D01*
X69723463Y-157115224D01*
X69741943Y-157108612D01*
X69760982Y-157103843D01*
X69780397Y-157100963D01*
X69800000Y-157100000D01*
X71000000Y-157100000D01*
X71019603Y-157100963D01*
G37*
G36*
X71019603Y-155850963D02*
G01*
X71039018Y-155853843D01*
X71058057Y-155858612D01*
X71076537Y-155865224D01*
X71094279Y-155873616D01*
X71111114Y-155883706D01*
X71126879Y-155895398D01*
X71141421Y-155908579D01*
X71154602Y-155923121D01*
X71166294Y-155938886D01*
X71176384Y-155955721D01*
X71184776Y-155973463D01*
X71191388Y-155991943D01*
X71196157Y-156010982D01*
X71199037Y-156030397D01*
X71200000Y-156050000D01*
X71200000Y-156450000D01*
X71199037Y-156469603D01*
X71196157Y-156489018D01*
X71191388Y-156508057D01*
X71184776Y-156526537D01*
X71176384Y-156544279D01*
X71166294Y-156561114D01*
X71154602Y-156576879D01*
X71141421Y-156591421D01*
X71126879Y-156604602D01*
X71111114Y-156616294D01*
X71094279Y-156626384D01*
X71076537Y-156634776D01*
X71058057Y-156641388D01*
X71039018Y-156646157D01*
X71019603Y-156649037D01*
X71000000Y-156650000D01*
X69800000Y-156650000D01*
X69780397Y-156649037D01*
X69760982Y-156646157D01*
X69741943Y-156641388D01*
X69723463Y-156634776D01*
X69705721Y-156626384D01*
X69688886Y-156616294D01*
X69673121Y-156604602D01*
X69658579Y-156591421D01*
X69645398Y-156576879D01*
X69633706Y-156561114D01*
X69623616Y-156544279D01*
X69615224Y-156526537D01*
X69608612Y-156508057D01*
X69603843Y-156489018D01*
X69600963Y-156469603D01*
X69600000Y-156450000D01*
X69600000Y-156050000D01*
X69600963Y-156030397D01*
X69603843Y-156010982D01*
X69608612Y-155991943D01*
X69615224Y-155973463D01*
X69623616Y-155955721D01*
X69633706Y-155938886D01*
X69645398Y-155923121D01*
X69658579Y-155908579D01*
X69673121Y-155895398D01*
X69688886Y-155883706D01*
X69705721Y-155873616D01*
X69723463Y-155865224D01*
X69741943Y-155858612D01*
X69760982Y-155853843D01*
X69780397Y-155850963D01*
X69800000Y-155850000D01*
X71000000Y-155850000D01*
X71019603Y-155850963D01*
G37*
G36*
X71019603Y-154600963D02*
G01*
X71039018Y-154603843D01*
X71058057Y-154608612D01*
X71076537Y-154615224D01*
X71094279Y-154623616D01*
X71111114Y-154633706D01*
X71126879Y-154645398D01*
X71141421Y-154658579D01*
X71154602Y-154673121D01*
X71166294Y-154688886D01*
X71176384Y-154705721D01*
X71184776Y-154723463D01*
X71191388Y-154741943D01*
X71196157Y-154760982D01*
X71199037Y-154780397D01*
X71200000Y-154800000D01*
X71200000Y-155200000D01*
X71199037Y-155219603D01*
X71196157Y-155239018D01*
X71191388Y-155258057D01*
X71184776Y-155276537D01*
X71176384Y-155294279D01*
X71166294Y-155311114D01*
X71154602Y-155326879D01*
X71141421Y-155341421D01*
X71126879Y-155354602D01*
X71111114Y-155366294D01*
X71094279Y-155376384D01*
X71076537Y-155384776D01*
X71058057Y-155391388D01*
X71039018Y-155396157D01*
X71019603Y-155399037D01*
X71000000Y-155400000D01*
X69800000Y-155400000D01*
X69780397Y-155399037D01*
X69760982Y-155396157D01*
X69741943Y-155391388D01*
X69723463Y-155384776D01*
X69705721Y-155376384D01*
X69688886Y-155366294D01*
X69673121Y-155354602D01*
X69658579Y-155341421D01*
X69645398Y-155326879D01*
X69633706Y-155311114D01*
X69623616Y-155294279D01*
X69615224Y-155276537D01*
X69608612Y-155258057D01*
X69603843Y-155239018D01*
X69600963Y-155219603D01*
X69600000Y-155200000D01*
X69600000Y-154800000D01*
X69600963Y-154780397D01*
X69603843Y-154760982D01*
X69608612Y-154741943D01*
X69615224Y-154723463D01*
X69623616Y-154705721D01*
X69633706Y-154688886D01*
X69645398Y-154673121D01*
X69658579Y-154658579D01*
X69673121Y-154645398D01*
X69688886Y-154633706D01*
X69705721Y-154623616D01*
X69723463Y-154615224D01*
X69741943Y-154608612D01*
X69760982Y-154603843D01*
X69780397Y-154600963D01*
X69800000Y-154600000D01*
X71000000Y-154600000D01*
X71019603Y-154600963D01*
G37*
G36*
X68774504Y-159001204D02*
G01*
X68798773Y-159004804D01*
X68822571Y-159010765D01*
X68845671Y-159019030D01*
X68867849Y-159029520D01*
X68888893Y-159042133D01*
X68908598Y-159056747D01*
X68926777Y-159073223D01*
X68943253Y-159091402D01*
X68957867Y-159111107D01*
X68970480Y-159132151D01*
X68980970Y-159154329D01*
X68989235Y-159177429D01*
X68995196Y-159201227D01*
X68998796Y-159225496D01*
X69000000Y-159250000D01*
X69000000Y-160850000D01*
X68998796Y-160874504D01*
X68995196Y-160898773D01*
X68989235Y-160922571D01*
X68980970Y-160945671D01*
X68970480Y-160967849D01*
X68957867Y-160988893D01*
X68943253Y-161008598D01*
X68926777Y-161026777D01*
X68908598Y-161043253D01*
X68888893Y-161057867D01*
X68867849Y-161070480D01*
X68845671Y-161080970D01*
X68822571Y-161089235D01*
X68798773Y-161095196D01*
X68774504Y-161098796D01*
X68750000Y-161100000D01*
X66250000Y-161100000D01*
X66225496Y-161098796D01*
X66201227Y-161095196D01*
X66177429Y-161089235D01*
X66154329Y-161080970D01*
X66132151Y-161070480D01*
X66111107Y-161057867D01*
X66091402Y-161043253D01*
X66073223Y-161026777D01*
X66056747Y-161008598D01*
X66042133Y-160988893D01*
X66029520Y-160967849D01*
X66019030Y-160945671D01*
X66010765Y-160922571D01*
X66004804Y-160898773D01*
X66001204Y-160874504D01*
X66000000Y-160850000D01*
X66000000Y-159250000D01*
X66001204Y-159225496D01*
X66004804Y-159201227D01*
X66010765Y-159177429D01*
X66019030Y-159154329D01*
X66029520Y-159132151D01*
X66042133Y-159111107D01*
X66056747Y-159091402D01*
X66073223Y-159073223D01*
X66091402Y-159056747D01*
X66111107Y-159042133D01*
X66132151Y-159029520D01*
X66154329Y-159019030D01*
X66177429Y-159010765D01*
X66201227Y-159004804D01*
X66225496Y-159001204D01*
X66250000Y-159000000D01*
X68750000Y-159000000D01*
X68774504Y-159001204D01*
G37*
G36*
X68774504Y-151401204D02*
G01*
X68798773Y-151404804D01*
X68822571Y-151410765D01*
X68845671Y-151419030D01*
X68867849Y-151429520D01*
X68888893Y-151442133D01*
X68908598Y-151456747D01*
X68926777Y-151473223D01*
X68943253Y-151491402D01*
X68957867Y-151511107D01*
X68970480Y-151532151D01*
X68980970Y-151554329D01*
X68989235Y-151577429D01*
X68995196Y-151601227D01*
X68998796Y-151625496D01*
X69000000Y-151650000D01*
X69000000Y-153250000D01*
X68998796Y-153274504D01*
X68995196Y-153298773D01*
X68989235Y-153322571D01*
X68980970Y-153345671D01*
X68970480Y-153367849D01*
X68957867Y-153388893D01*
X68943253Y-153408598D01*
X68926777Y-153426777D01*
X68908598Y-153443253D01*
X68888893Y-153457867D01*
X68867849Y-153470480D01*
X68845671Y-153480970D01*
X68822571Y-153489235D01*
X68798773Y-153495196D01*
X68774504Y-153498796D01*
X68750000Y-153500000D01*
X66250000Y-153500000D01*
X66225496Y-153498796D01*
X66201227Y-153495196D01*
X66177429Y-153489235D01*
X66154329Y-153480970D01*
X66132151Y-153470480D01*
X66111107Y-153457867D01*
X66091402Y-153443253D01*
X66073223Y-153426777D01*
X66056747Y-153408598D01*
X66042133Y-153388893D01*
X66029520Y-153367849D01*
X66019030Y-153345671D01*
X66010765Y-153322571D01*
X66004804Y-153298773D01*
X66001204Y-153274504D01*
X66000000Y-153250000D01*
X66000000Y-151650000D01*
X66001204Y-151625496D01*
X66004804Y-151601227D01*
X66010765Y-151577429D01*
X66019030Y-151554329D01*
X66029520Y-151532151D01*
X66042133Y-151511107D01*
X66056747Y-151491402D01*
X66073223Y-151473223D01*
X66091402Y-151456747D01*
X66111107Y-151442133D01*
X66132151Y-151429520D01*
X66154329Y-151419030D01*
X66177429Y-151410765D01*
X66201227Y-151404804D01*
X66225496Y-151401204D01*
X66250000Y-151400000D01*
X68750000Y-151400000D01*
X68774504Y-151401204D01*
G37*
G36*
X82219603Y-154850963D02*
G01*
X82239018Y-154853843D01*
X82258057Y-154858612D01*
X82276537Y-154865224D01*
X82294279Y-154873616D01*
X82311114Y-154883706D01*
X82326879Y-154895398D01*
X82341421Y-154908579D01*
X82354602Y-154923121D01*
X82366294Y-154938886D01*
X82376384Y-154955721D01*
X82384776Y-154973463D01*
X82391388Y-154991943D01*
X82396157Y-155010982D01*
X82399037Y-155030397D01*
X82400000Y-155050000D01*
X82400000Y-155450000D01*
X82399037Y-155469603D01*
X82396157Y-155489018D01*
X82391388Y-155508057D01*
X82384776Y-155526537D01*
X82376384Y-155544279D01*
X82366294Y-155561114D01*
X82354602Y-155576879D01*
X82341421Y-155591421D01*
X82326879Y-155604602D01*
X82311114Y-155616294D01*
X82294279Y-155626384D01*
X82276537Y-155634776D01*
X82258057Y-155641388D01*
X82239018Y-155646157D01*
X82219603Y-155649037D01*
X82200000Y-155650000D01*
X81000000Y-155650000D01*
X80980397Y-155649037D01*
X80960982Y-155646157D01*
X80941943Y-155641388D01*
X80923463Y-155634776D01*
X80905721Y-155626384D01*
X80888886Y-155616294D01*
X80873121Y-155604602D01*
X80858579Y-155591421D01*
X80845398Y-155576879D01*
X80833706Y-155561114D01*
X80823616Y-155544279D01*
X80815224Y-155526537D01*
X80808612Y-155508057D01*
X80803843Y-155489018D01*
X80800963Y-155469603D01*
X80800000Y-155450000D01*
X80800000Y-155050000D01*
X80800963Y-155030397D01*
X80803843Y-155010982D01*
X80808612Y-154991943D01*
X80815224Y-154973463D01*
X80823616Y-154955721D01*
X80833706Y-154938886D01*
X80845398Y-154923121D01*
X80858579Y-154908579D01*
X80873121Y-154895398D01*
X80888886Y-154883706D01*
X80905721Y-154873616D01*
X80923463Y-154865224D01*
X80941943Y-154858612D01*
X80960982Y-154853843D01*
X80980397Y-154850963D01*
X81000000Y-154850000D01*
X82200000Y-154850000D01*
X82219603Y-154850963D01*
G37*
G36*
X82219603Y-156100963D02*
G01*
X82239018Y-156103843D01*
X82258057Y-156108612D01*
X82276537Y-156115224D01*
X82294279Y-156123616D01*
X82311114Y-156133706D01*
X82326879Y-156145398D01*
X82341421Y-156158579D01*
X82354602Y-156173121D01*
X82366294Y-156188886D01*
X82376384Y-156205721D01*
X82384776Y-156223463D01*
X82391388Y-156241943D01*
X82396157Y-156260982D01*
X82399037Y-156280397D01*
X82400000Y-156300000D01*
X82400000Y-156700000D01*
X82399037Y-156719603D01*
X82396157Y-156739018D01*
X82391388Y-156758057D01*
X82384776Y-156776537D01*
X82376384Y-156794279D01*
X82366294Y-156811114D01*
X82354602Y-156826879D01*
X82341421Y-156841421D01*
X82326879Y-156854602D01*
X82311114Y-156866294D01*
X82294279Y-156876384D01*
X82276537Y-156884776D01*
X82258057Y-156891388D01*
X82239018Y-156896157D01*
X82219603Y-156899037D01*
X82200000Y-156900000D01*
X81000000Y-156900000D01*
X80980397Y-156899037D01*
X80960982Y-156896157D01*
X80941943Y-156891388D01*
X80923463Y-156884776D01*
X80905721Y-156876384D01*
X80888886Y-156866294D01*
X80873121Y-156854602D01*
X80858579Y-156841421D01*
X80845398Y-156826879D01*
X80833706Y-156811114D01*
X80823616Y-156794279D01*
X80815224Y-156776537D01*
X80808612Y-156758057D01*
X80803843Y-156739018D01*
X80800963Y-156719603D01*
X80800000Y-156700000D01*
X80800000Y-156300000D01*
X80800963Y-156280397D01*
X80803843Y-156260982D01*
X80808612Y-156241943D01*
X80815224Y-156223463D01*
X80823616Y-156205721D01*
X80833706Y-156188886D01*
X80845398Y-156173121D01*
X80858579Y-156158579D01*
X80873121Y-156145398D01*
X80888886Y-156133706D01*
X80905721Y-156123616D01*
X80923463Y-156115224D01*
X80941943Y-156108612D01*
X80960982Y-156103843D01*
X80980397Y-156100963D01*
X81000000Y-156100000D01*
X82200000Y-156100000D01*
X82219603Y-156100963D01*
G37*
G36*
X82219603Y-157350963D02*
G01*
X82239018Y-157353843D01*
X82258057Y-157358612D01*
X82276537Y-157365224D01*
X82294279Y-157373616D01*
X82311114Y-157383706D01*
X82326879Y-157395398D01*
X82341421Y-157408579D01*
X82354602Y-157423121D01*
X82366294Y-157438886D01*
X82376384Y-157455721D01*
X82384776Y-157473463D01*
X82391388Y-157491943D01*
X82396157Y-157510982D01*
X82399037Y-157530397D01*
X82400000Y-157550000D01*
X82400000Y-157950000D01*
X82399037Y-157969603D01*
X82396157Y-157989018D01*
X82391388Y-158008057D01*
X82384776Y-158026537D01*
X82376384Y-158044279D01*
X82366294Y-158061114D01*
X82354602Y-158076879D01*
X82341421Y-158091421D01*
X82326879Y-158104602D01*
X82311114Y-158116294D01*
X82294279Y-158126384D01*
X82276537Y-158134776D01*
X82258057Y-158141388D01*
X82239018Y-158146157D01*
X82219603Y-158149037D01*
X82200000Y-158150000D01*
X81000000Y-158150000D01*
X80980397Y-158149037D01*
X80960982Y-158146157D01*
X80941943Y-158141388D01*
X80923463Y-158134776D01*
X80905721Y-158126384D01*
X80888886Y-158116294D01*
X80873121Y-158104602D01*
X80858579Y-158091421D01*
X80845398Y-158076879D01*
X80833706Y-158061114D01*
X80823616Y-158044279D01*
X80815224Y-158026537D01*
X80808612Y-158008057D01*
X80803843Y-157989018D01*
X80800963Y-157969603D01*
X80800000Y-157950000D01*
X80800000Y-157550000D01*
X80800963Y-157530397D01*
X80803843Y-157510982D01*
X80808612Y-157491943D01*
X80815224Y-157473463D01*
X80823616Y-157455721D01*
X80833706Y-157438886D01*
X80845398Y-157423121D01*
X80858579Y-157408579D01*
X80873121Y-157395398D01*
X80888886Y-157383706D01*
X80905721Y-157373616D01*
X80923463Y-157365224D01*
X80941943Y-157358612D01*
X80960982Y-157353843D01*
X80980397Y-157350963D01*
X81000000Y-157350000D01*
X82200000Y-157350000D01*
X82219603Y-157350963D01*
G37*
G36*
X82219603Y-158600963D02*
G01*
X82239018Y-158603843D01*
X82258057Y-158608612D01*
X82276537Y-158615224D01*
X82294279Y-158623616D01*
X82311114Y-158633706D01*
X82326879Y-158645398D01*
X82341421Y-158658579D01*
X82354602Y-158673121D01*
X82366294Y-158688886D01*
X82376384Y-158705721D01*
X82384776Y-158723463D01*
X82391388Y-158741943D01*
X82396157Y-158760982D01*
X82399037Y-158780397D01*
X82400000Y-158800000D01*
X82400000Y-159200000D01*
X82399037Y-159219603D01*
X82396157Y-159239018D01*
X82391388Y-159258057D01*
X82384776Y-159276537D01*
X82376384Y-159294279D01*
X82366294Y-159311114D01*
X82354602Y-159326879D01*
X82341421Y-159341421D01*
X82326879Y-159354602D01*
X82311114Y-159366294D01*
X82294279Y-159376384D01*
X82276537Y-159384776D01*
X82258057Y-159391388D01*
X82239018Y-159396157D01*
X82219603Y-159399037D01*
X82200000Y-159400000D01*
X81000000Y-159400000D01*
X80980397Y-159399037D01*
X80960982Y-159396157D01*
X80941943Y-159391388D01*
X80923463Y-159384776D01*
X80905721Y-159376384D01*
X80888886Y-159366294D01*
X80873121Y-159354602D01*
X80858579Y-159341421D01*
X80845398Y-159326879D01*
X80833706Y-159311114D01*
X80823616Y-159294279D01*
X80815224Y-159276537D01*
X80808612Y-159258057D01*
X80803843Y-159239018D01*
X80800963Y-159219603D01*
X80800000Y-159200000D01*
X80800000Y-158800000D01*
X80800963Y-158780397D01*
X80803843Y-158760982D01*
X80808612Y-158741943D01*
X80815224Y-158723463D01*
X80823616Y-158705721D01*
X80833706Y-158688886D01*
X80845398Y-158673121D01*
X80858579Y-158658579D01*
X80873121Y-158645398D01*
X80888886Y-158633706D01*
X80905721Y-158623616D01*
X80923463Y-158615224D01*
X80941943Y-158608612D01*
X80960982Y-158603843D01*
X80980397Y-158600963D01*
X81000000Y-158600000D01*
X82200000Y-158600000D01*
X82219603Y-158600963D01*
G37*
G36*
X82219603Y-159850963D02*
G01*
X82239018Y-159853843D01*
X82258057Y-159858612D01*
X82276537Y-159865224D01*
X82294279Y-159873616D01*
X82311114Y-159883706D01*
X82326879Y-159895398D01*
X82341421Y-159908579D01*
X82354602Y-159923121D01*
X82366294Y-159938886D01*
X82376384Y-159955721D01*
X82384776Y-159973463D01*
X82391388Y-159991943D01*
X82396157Y-160010982D01*
X82399037Y-160030397D01*
X82400000Y-160050000D01*
X82400000Y-160450000D01*
X82399037Y-160469603D01*
X82396157Y-160489018D01*
X82391388Y-160508057D01*
X82384776Y-160526537D01*
X82376384Y-160544279D01*
X82366294Y-160561114D01*
X82354602Y-160576879D01*
X82341421Y-160591421D01*
X82326879Y-160604602D01*
X82311114Y-160616294D01*
X82294279Y-160626384D01*
X82276537Y-160634776D01*
X82258057Y-160641388D01*
X82239018Y-160646157D01*
X82219603Y-160649037D01*
X82200000Y-160650000D01*
X81000000Y-160650000D01*
X80980397Y-160649037D01*
X80960982Y-160646157D01*
X80941943Y-160641388D01*
X80923463Y-160634776D01*
X80905721Y-160626384D01*
X80888886Y-160616294D01*
X80873121Y-160604602D01*
X80858579Y-160591421D01*
X80845398Y-160576879D01*
X80833706Y-160561114D01*
X80823616Y-160544279D01*
X80815224Y-160526537D01*
X80808612Y-160508057D01*
X80803843Y-160489018D01*
X80800963Y-160469603D01*
X80800000Y-160450000D01*
X80800000Y-160050000D01*
X80800963Y-160030397D01*
X80803843Y-160010982D01*
X80808612Y-159991943D01*
X80815224Y-159973463D01*
X80823616Y-159955721D01*
X80833706Y-159938886D01*
X80845398Y-159923121D01*
X80858579Y-159908579D01*
X80873121Y-159895398D01*
X80888886Y-159883706D01*
X80905721Y-159873616D01*
X80923463Y-159865224D01*
X80941943Y-159858612D01*
X80960982Y-159853843D01*
X80980397Y-159850963D01*
X81000000Y-159850000D01*
X82200000Y-159850000D01*
X82219603Y-159850963D01*
G37*
G36*
X82219603Y-161100963D02*
G01*
X82239018Y-161103843D01*
X82258057Y-161108612D01*
X82276537Y-161115224D01*
X82294279Y-161123616D01*
X82311114Y-161133706D01*
X82326879Y-161145398D01*
X82341421Y-161158579D01*
X82354602Y-161173121D01*
X82366294Y-161188886D01*
X82376384Y-161205721D01*
X82384776Y-161223463D01*
X82391388Y-161241943D01*
X82396157Y-161260982D01*
X82399037Y-161280397D01*
X82400000Y-161300000D01*
X82400000Y-161700000D01*
X82399037Y-161719603D01*
X82396157Y-161739018D01*
X82391388Y-161758057D01*
X82384776Y-161776537D01*
X82376384Y-161794279D01*
X82366294Y-161811114D01*
X82354602Y-161826879D01*
X82341421Y-161841421D01*
X82326879Y-161854602D01*
X82311114Y-161866294D01*
X82294279Y-161876384D01*
X82276537Y-161884776D01*
X82258057Y-161891388D01*
X82239018Y-161896157D01*
X82219603Y-161899037D01*
X82200000Y-161900000D01*
X81000000Y-161900000D01*
X80980397Y-161899037D01*
X80960982Y-161896157D01*
X80941943Y-161891388D01*
X80923463Y-161884776D01*
X80905721Y-161876384D01*
X80888886Y-161866294D01*
X80873121Y-161854602D01*
X80858579Y-161841421D01*
X80845398Y-161826879D01*
X80833706Y-161811114D01*
X80823616Y-161794279D01*
X80815224Y-161776537D01*
X80808612Y-161758057D01*
X80803843Y-161739018D01*
X80800963Y-161719603D01*
X80800000Y-161700000D01*
X80800000Y-161300000D01*
X80800963Y-161280397D01*
X80803843Y-161260982D01*
X80808612Y-161241943D01*
X80815224Y-161223463D01*
X80823616Y-161205721D01*
X80833706Y-161188886D01*
X80845398Y-161173121D01*
X80858579Y-161158579D01*
X80873121Y-161145398D01*
X80888886Y-161133706D01*
X80905721Y-161123616D01*
X80923463Y-161115224D01*
X80941943Y-161108612D01*
X80960982Y-161103843D01*
X80980397Y-161100963D01*
X81000000Y-161100000D01*
X82200000Y-161100000D01*
X82219603Y-161100963D01*
G37*
G36*
X82219603Y-162350963D02*
G01*
X82239018Y-162353843D01*
X82258057Y-162358612D01*
X82276537Y-162365224D01*
X82294279Y-162373616D01*
X82311114Y-162383706D01*
X82326879Y-162395398D01*
X82341421Y-162408579D01*
X82354602Y-162423121D01*
X82366294Y-162438886D01*
X82376384Y-162455721D01*
X82384776Y-162473463D01*
X82391388Y-162491943D01*
X82396157Y-162510982D01*
X82399037Y-162530397D01*
X82400000Y-162550000D01*
X82400000Y-162950000D01*
X82399037Y-162969603D01*
X82396157Y-162989018D01*
X82391388Y-163008057D01*
X82384776Y-163026537D01*
X82376384Y-163044279D01*
X82366294Y-163061114D01*
X82354602Y-163076879D01*
X82341421Y-163091421D01*
X82326879Y-163104602D01*
X82311114Y-163116294D01*
X82294279Y-163126384D01*
X82276537Y-163134776D01*
X82258057Y-163141388D01*
X82239018Y-163146157D01*
X82219603Y-163149037D01*
X82200000Y-163150000D01*
X81000000Y-163150000D01*
X80980397Y-163149037D01*
X80960982Y-163146157D01*
X80941943Y-163141388D01*
X80923463Y-163134776D01*
X80905721Y-163126384D01*
X80888886Y-163116294D01*
X80873121Y-163104602D01*
X80858579Y-163091421D01*
X80845398Y-163076879D01*
X80833706Y-163061114D01*
X80823616Y-163044279D01*
X80815224Y-163026537D01*
X80808612Y-163008057D01*
X80803843Y-162989018D01*
X80800963Y-162969603D01*
X80800000Y-162950000D01*
X80800000Y-162550000D01*
X80800963Y-162530397D01*
X80803843Y-162510982D01*
X80808612Y-162491943D01*
X80815224Y-162473463D01*
X80823616Y-162455721D01*
X80833706Y-162438886D01*
X80845398Y-162423121D01*
X80858579Y-162408579D01*
X80873121Y-162395398D01*
X80888886Y-162383706D01*
X80905721Y-162373616D01*
X80923463Y-162365224D01*
X80941943Y-162358612D01*
X80960982Y-162353843D01*
X80980397Y-162350963D01*
X81000000Y-162350000D01*
X82200000Y-162350000D01*
X82219603Y-162350963D01*
G37*
G36*
X85774504Y-151651204D02*
G01*
X85798773Y-151654804D01*
X85822571Y-151660765D01*
X85845671Y-151669030D01*
X85867849Y-151679520D01*
X85888893Y-151692133D01*
X85908598Y-151706747D01*
X85926777Y-151723223D01*
X85943253Y-151741402D01*
X85957867Y-151761107D01*
X85970480Y-151782151D01*
X85980970Y-151804329D01*
X85989235Y-151827429D01*
X85995196Y-151851227D01*
X85998796Y-151875496D01*
X86000000Y-151900000D01*
X86000000Y-153500000D01*
X85998796Y-153524504D01*
X85995196Y-153548773D01*
X85989235Y-153572571D01*
X85980970Y-153595671D01*
X85970480Y-153617849D01*
X85957867Y-153638893D01*
X85943253Y-153658598D01*
X85926777Y-153676777D01*
X85908598Y-153693253D01*
X85888893Y-153707867D01*
X85867849Y-153720480D01*
X85845671Y-153730970D01*
X85822571Y-153739235D01*
X85798773Y-153745196D01*
X85774504Y-153748796D01*
X85750000Y-153750000D01*
X83250000Y-153750000D01*
X83225496Y-153748796D01*
X83201227Y-153745196D01*
X83177429Y-153739235D01*
X83154329Y-153730970D01*
X83132151Y-153720480D01*
X83111107Y-153707867D01*
X83091402Y-153693253D01*
X83073223Y-153676777D01*
X83056747Y-153658598D01*
X83042133Y-153638893D01*
X83029520Y-153617849D01*
X83019030Y-153595671D01*
X83010765Y-153572571D01*
X83004804Y-153548773D01*
X83001204Y-153524504D01*
X83000000Y-153500000D01*
X83000000Y-151900000D01*
X83001204Y-151875496D01*
X83004804Y-151851227D01*
X83010765Y-151827429D01*
X83019030Y-151804329D01*
X83029520Y-151782151D01*
X83042133Y-151761107D01*
X83056747Y-151741402D01*
X83073223Y-151723223D01*
X83091402Y-151706747D01*
X83111107Y-151692133D01*
X83132151Y-151679520D01*
X83154329Y-151669030D01*
X83177429Y-151660765D01*
X83201227Y-151654804D01*
X83225496Y-151651204D01*
X83250000Y-151650000D01*
X85750000Y-151650000D01*
X85774504Y-151651204D01*
G37*
G36*
X85774504Y-164251204D02*
G01*
X85798773Y-164254804D01*
X85822571Y-164260765D01*
X85845671Y-164269030D01*
X85867849Y-164279520D01*
X85888893Y-164292133D01*
X85908598Y-164306747D01*
X85926777Y-164323223D01*
X85943253Y-164341402D01*
X85957867Y-164361107D01*
X85970480Y-164382151D01*
X85980970Y-164404329D01*
X85989235Y-164427429D01*
X85995196Y-164451227D01*
X85998796Y-164475496D01*
X86000000Y-164500000D01*
X86000000Y-166100000D01*
X85998796Y-166124504D01*
X85995196Y-166148773D01*
X85989235Y-166172571D01*
X85980970Y-166195671D01*
X85970480Y-166217849D01*
X85957867Y-166238893D01*
X85943253Y-166258598D01*
X85926777Y-166276777D01*
X85908598Y-166293253D01*
X85888893Y-166307867D01*
X85867849Y-166320480D01*
X85845671Y-166330970D01*
X85822571Y-166339235D01*
X85798773Y-166345196D01*
X85774504Y-166348796D01*
X85750000Y-166350000D01*
X83250000Y-166350000D01*
X83225496Y-166348796D01*
X83201227Y-166345196D01*
X83177429Y-166339235D01*
X83154329Y-166330970D01*
X83132151Y-166320480D01*
X83111107Y-166307867D01*
X83091402Y-166293253D01*
X83073223Y-166276777D01*
X83056747Y-166258598D01*
X83042133Y-166238893D01*
X83029520Y-166217849D01*
X83019030Y-166195671D01*
X83010765Y-166172571D01*
X83004804Y-166148773D01*
X83001204Y-166124504D01*
X83000000Y-166100000D01*
X83000000Y-164500000D01*
X83001204Y-164475496D01*
X83004804Y-164451227D01*
X83010765Y-164427429D01*
X83019030Y-164404329D01*
X83029520Y-164382151D01*
X83042133Y-164361107D01*
X83056747Y-164341402D01*
X83073223Y-164323223D01*
X83091402Y-164306747D01*
X83111107Y-164292133D01*
X83132151Y-164279520D01*
X83154329Y-164269030D01*
X83177429Y-164260765D01*
X83201227Y-164254804D01*
X83225496Y-164251204D01*
X83250000Y-164250000D01*
X85750000Y-164250000D01*
X85774504Y-164251204D01*
G37*
M02*
