G04 #@! TF.GenerationSoftware,KiCad,Pcbnew,(5.1.5)-3*
G04 #@! TF.CreationDate,2020-03-19T11:24:29+02:00*
G04 #@! TF.ProjectId,LeftPanel,4c656674-5061-46e6-956c-2e6b69636164,rev?*
G04 #@! TF.SameCoordinates,Original*
G04 #@! TF.FileFunction,Copper,L1,Top*
G04 #@! TF.FilePolarity,Positive*
%FSLAX46Y46*%
G04 Gerber Fmt 4.6, Leading zero omitted, Abs format (unit mm)*
G04 Created by KiCad (PCBNEW (5.1.5)-3) date 2020-03-19 11:24:29*
%MOMM*%
%LPD*%
G04 APERTURE LIST*
%ADD10R,2.300000X2.400000*%
%ADD11C,0.800000*%
%ADD12C,0.500000*%
%ADD13C,0.250000*%
G04 APERTURE END LIST*
D10*
X62975000Y-164750000D03*
X77275000Y-164750000D03*
X62975000Y-169750000D03*
X77275000Y-169750000D03*
X62975000Y-150500000D03*
X77275000Y-150500000D03*
X62975000Y-155500000D03*
X77275000Y-155500000D03*
X62975000Y-136250000D03*
X77275000Y-136250000D03*
X62975000Y-141250000D03*
X77275000Y-141250000D03*
X41225000Y-127250000D03*
X55525000Y-127250000D03*
X41225000Y-132250000D03*
X55525000Y-132250000D03*
D11*
X59500000Y-141000000D03*
X62975000Y-164750000D03*
X77275000Y-164750000D03*
X61000000Y-150500000D03*
X74650000Y-150550000D03*
X77275000Y-150500000D03*
X62975000Y-136250000D03*
X77275000Y-136250000D03*
X75558683Y-151898211D03*
X52550000Y-132250000D03*
X55525000Y-132250000D03*
X81700000Y-162799994D03*
D12*
X55525000Y-128950000D02*
X55525000Y-127250000D01*
X53924999Y-130550001D02*
X55525000Y-128950000D01*
X53924999Y-135424999D02*
X53924999Y-130550001D01*
X59500000Y-141000000D02*
X53924999Y-135424999D01*
X55525000Y-127250000D02*
X41225000Y-127250000D01*
X61000000Y-150500000D02*
X62975000Y-150500000D01*
X62975000Y-150500000D02*
X74600000Y-150500000D01*
X74600000Y-150500000D02*
X74650000Y-150550000D01*
X77275000Y-155550000D02*
X77275000Y-155500000D01*
X75625000Y-157200000D02*
X77275000Y-155550000D01*
X75625000Y-168050000D02*
X75625000Y-157200000D01*
X77275000Y-169750000D02*
X77275000Y-169700000D01*
X77275000Y-141300000D02*
X77275000Y-141250000D01*
X75625000Y-142950000D02*
X77275000Y-141300000D01*
X75625000Y-153800000D02*
X75625000Y-142950000D01*
X77275000Y-155500000D02*
X77275000Y-155450000D01*
X77275000Y-155450000D02*
X75625000Y-153800000D01*
X57175000Y-132250000D02*
X55525000Y-132250000D01*
X66625000Y-132250000D02*
X57175000Y-132250000D01*
X77275000Y-141250000D02*
X75625000Y-141250000D01*
X75625000Y-141250000D02*
X66625000Y-132250000D01*
X77275000Y-169700000D02*
X75625000Y-168050000D01*
D13*
X77275000Y-169750000D02*
X62975000Y-169750000D01*
X64375000Y-155500000D02*
X77275000Y-155500000D01*
X62975000Y-155500000D02*
X64375000Y-155500000D01*
X77275000Y-141250000D02*
X62975000Y-141250000D01*
D12*
X41225000Y-132250000D02*
X52550000Y-132250000D01*
X81300001Y-162399995D02*
X81700000Y-162799994D01*
X77275000Y-155500000D02*
X77275000Y-158374994D01*
X77275000Y-158374994D02*
X81300001Y-162399995D01*
M02*
