G04 #@! TF.GenerationSoftware,KiCad,Pcbnew,(5.1.5)-3*
G04 #@! TF.CreationDate,2020-03-19T11:24:29+02:00*
G04 #@! TF.ProjectId,LeftPanel,4c656674-5061-46e6-956c-2e6b69636164,rev?*
G04 #@! TF.SameCoordinates,Original*
G04 #@! TF.FileFunction,Legend,Bot*
G04 #@! TF.FilePolarity,Positive*
%FSLAX46Y46*%
G04 Gerber Fmt 4.6, Leading zero omitted, Abs format (unit mm)*
G04 Created by KiCad (PCBNEW (5.1.5)-3) date 2020-03-19 11:24:29*
%MOMM*%
%LPD*%
G04 APERTURE LIST*
%ADD10C,0.150000*%
%ADD11C,0.120000*%
G04 APERTURE END LIST*
D10*
X81821428Y-165369047D02*
X81821428Y-166130952D01*
X82202380Y-165750000D02*
X81440476Y-165750000D01*
X70321428Y-151869047D02*
X70321428Y-152630952D01*
X70702380Y-152250000D02*
X69940476Y-152250000D01*
D11*
X69260000Y-159110000D02*
X69710000Y-159110000D01*
X69710000Y-159110000D02*
X69710000Y-158160000D01*
X69710000Y-158160000D02*
X71200000Y-158160000D01*
X69260000Y-153390000D02*
X69710000Y-153390000D01*
X69710000Y-153390000D02*
X69710000Y-154340000D01*
X65740000Y-159110000D02*
X65290000Y-159110000D01*
X65290000Y-159110000D02*
X65290000Y-153390000D01*
X65290000Y-153390000D02*
X65740000Y-153390000D01*
X82740000Y-153640000D02*
X82290000Y-153640000D01*
X82290000Y-153640000D02*
X82290000Y-154590000D01*
X82290000Y-154590000D02*
X80800000Y-154590000D01*
X82740000Y-164360000D02*
X82290000Y-164360000D01*
X82290000Y-164360000D02*
X82290000Y-163410000D01*
X86260000Y-153640000D02*
X86710000Y-153640000D01*
X86710000Y-153640000D02*
X86710000Y-164360000D01*
X86710000Y-164360000D02*
X86260000Y-164360000D01*
D10*
X71852380Y-155916666D02*
X72566666Y-155916666D01*
X72709523Y-155869047D01*
X72804761Y-155773809D01*
X72852380Y-155630952D01*
X72852380Y-155535714D01*
X72852380Y-156916666D02*
X72852380Y-156345238D01*
X72852380Y-156630952D02*
X71852380Y-156630952D01*
X71995238Y-156535714D01*
X72090476Y-156440476D01*
X72138095Y-156345238D01*
X79052380Y-158666666D02*
X79766666Y-158666666D01*
X79909523Y-158619047D01*
X80004761Y-158523809D01*
X80052380Y-158380952D01*
X80052380Y-158285714D01*
X79147619Y-159095238D02*
X79100000Y-159142857D01*
X79052380Y-159238095D01*
X79052380Y-159476190D01*
X79100000Y-159571428D01*
X79147619Y-159619047D01*
X79242857Y-159666666D01*
X79338095Y-159666666D01*
X79480952Y-159619047D01*
X80052380Y-159047619D01*
X80052380Y-159666666D01*
M02*
