G04 #@! TF.GenerationSoftware,KiCad,Pcbnew,(5.1.5)-3*
G04 #@! TF.CreationDate,2020-03-19T11:30:28+02:00*
G04 #@! TF.ProjectId,RightPanel,52696768-7450-4616-9e65-6c2e6b696361,rev?*
G04 #@! TF.SameCoordinates,Original*
G04 #@! TF.FileFunction,Legend,Bot*
G04 #@! TF.FilePolarity,Positive*
%FSLAX46Y46*%
G04 Gerber Fmt 4.6, Leading zero omitted, Abs format (unit mm)*
G04 Created by KiCad (PCBNEW (5.1.5)-3) date 2020-03-19 11:30:28*
%MOMM*%
%LPD*%
G04 APERTURE LIST*
%ADD10C,0.150000*%
%ADD11C,0.120000*%
G04 APERTURE END LIST*
D10*
X70821428Y-73619047D02*
X70821428Y-74380952D01*
X71202380Y-74000000D02*
X70440476Y-74000000D01*
X53071428Y-66619047D02*
X53071428Y-67380952D01*
X53452380Y-67000000D02*
X52690476Y-67000000D01*
D11*
X71490000Y-67390000D02*
X71040000Y-67390000D01*
X71040000Y-67390000D02*
X71040000Y-68340000D01*
X71040000Y-68340000D02*
X69550000Y-68340000D01*
X71490000Y-73110000D02*
X71040000Y-73110000D01*
X71040000Y-73110000D02*
X71040000Y-72160000D01*
X75010000Y-67390000D02*
X75460000Y-67390000D01*
X75460000Y-67390000D02*
X75460000Y-73110000D01*
X75460000Y-73110000D02*
X75010000Y-73110000D01*
X51760000Y-76110000D02*
X52210000Y-76110000D01*
X52210000Y-76110000D02*
X52210000Y-75160000D01*
X52210000Y-75160000D02*
X53700000Y-75160000D01*
X51760000Y-67890000D02*
X52210000Y-67890000D01*
X52210000Y-67890000D02*
X52210000Y-68840000D01*
X48240000Y-76110000D02*
X47790000Y-76110000D01*
X47790000Y-76110000D02*
X47790000Y-67890000D01*
X47790000Y-67890000D02*
X48240000Y-67890000D01*
D10*
X67802380Y-69916666D02*
X68516666Y-69916666D01*
X68659523Y-69869047D01*
X68754761Y-69773809D01*
X68802380Y-69630952D01*
X68802380Y-69535714D01*
X68802380Y-70916666D02*
X68802380Y-70345238D01*
X68802380Y-70630952D02*
X67802380Y-70630952D01*
X67945238Y-70535714D01*
X68040476Y-70440476D01*
X68088095Y-70345238D01*
X54352380Y-71666666D02*
X55066666Y-71666666D01*
X55209523Y-71619047D01*
X55304761Y-71523809D01*
X55352380Y-71380952D01*
X55352380Y-71285714D01*
X54447619Y-72095238D02*
X54400000Y-72142857D01*
X54352380Y-72238095D01*
X54352380Y-72476190D01*
X54400000Y-72571428D01*
X54447619Y-72619047D01*
X54542857Y-72666666D01*
X54638095Y-72666666D01*
X54780952Y-72619047D01*
X55352380Y-72047619D01*
X55352380Y-72666666D01*
M02*
