G04 #@! TF.GenerationSoftware,KiCad,Pcbnew,(5.1.5)-3*
G04 #@! TF.CreationDate,2020-03-19T11:30:27+02:00*
G04 #@! TF.ProjectId,RightPanel,52696768-7450-4616-9e65-6c2e6b696361,rev?*
G04 #@! TF.SameCoordinates,Original*
G04 #@! TF.FileFunction,Paste,Bot*
G04 #@! TF.FilePolarity,Positive*
%FSLAX46Y46*%
G04 Gerber Fmt 4.6, Leading zero omitted, Abs format (unit mm)*
G04 Created by KiCad (PCBNEW (5.1.5)-3) date 2020-03-19 11:30:27*
%MOMM*%
%LPD*%
G04 APERTURE LIST*
%ADD10C,0.100000*%
G04 APERTURE END LIST*
D10*
G36*
X70969603Y-68600963D02*
G01*
X70989018Y-68603843D01*
X71008057Y-68608612D01*
X71026537Y-68615224D01*
X71044279Y-68623616D01*
X71061114Y-68633706D01*
X71076879Y-68645398D01*
X71091421Y-68658579D01*
X71104602Y-68673121D01*
X71116294Y-68688886D01*
X71126384Y-68705721D01*
X71134776Y-68723463D01*
X71141388Y-68741943D01*
X71146157Y-68760982D01*
X71149037Y-68780397D01*
X71150000Y-68800000D01*
X71150000Y-69200000D01*
X71149037Y-69219603D01*
X71146157Y-69239018D01*
X71141388Y-69258057D01*
X71134776Y-69276537D01*
X71126384Y-69294279D01*
X71116294Y-69311114D01*
X71104602Y-69326879D01*
X71091421Y-69341421D01*
X71076879Y-69354602D01*
X71061114Y-69366294D01*
X71044279Y-69376384D01*
X71026537Y-69384776D01*
X71008057Y-69391388D01*
X70989018Y-69396157D01*
X70969603Y-69399037D01*
X70950000Y-69400000D01*
X69750000Y-69400000D01*
X69730397Y-69399037D01*
X69710982Y-69396157D01*
X69691943Y-69391388D01*
X69673463Y-69384776D01*
X69655721Y-69376384D01*
X69638886Y-69366294D01*
X69623121Y-69354602D01*
X69608579Y-69341421D01*
X69595398Y-69326879D01*
X69583706Y-69311114D01*
X69573616Y-69294279D01*
X69565224Y-69276537D01*
X69558612Y-69258057D01*
X69553843Y-69239018D01*
X69550963Y-69219603D01*
X69550000Y-69200000D01*
X69550000Y-68800000D01*
X69550963Y-68780397D01*
X69553843Y-68760982D01*
X69558612Y-68741943D01*
X69565224Y-68723463D01*
X69573616Y-68705721D01*
X69583706Y-68688886D01*
X69595398Y-68673121D01*
X69608579Y-68658579D01*
X69623121Y-68645398D01*
X69638886Y-68633706D01*
X69655721Y-68623616D01*
X69673463Y-68615224D01*
X69691943Y-68608612D01*
X69710982Y-68603843D01*
X69730397Y-68600963D01*
X69750000Y-68600000D01*
X70950000Y-68600000D01*
X70969603Y-68600963D01*
G37*
G36*
X70969603Y-69850963D02*
G01*
X70989018Y-69853843D01*
X71008057Y-69858612D01*
X71026537Y-69865224D01*
X71044279Y-69873616D01*
X71061114Y-69883706D01*
X71076879Y-69895398D01*
X71091421Y-69908579D01*
X71104602Y-69923121D01*
X71116294Y-69938886D01*
X71126384Y-69955721D01*
X71134776Y-69973463D01*
X71141388Y-69991943D01*
X71146157Y-70010982D01*
X71149037Y-70030397D01*
X71150000Y-70050000D01*
X71150000Y-70450000D01*
X71149037Y-70469603D01*
X71146157Y-70489018D01*
X71141388Y-70508057D01*
X71134776Y-70526537D01*
X71126384Y-70544279D01*
X71116294Y-70561114D01*
X71104602Y-70576879D01*
X71091421Y-70591421D01*
X71076879Y-70604602D01*
X71061114Y-70616294D01*
X71044279Y-70626384D01*
X71026537Y-70634776D01*
X71008057Y-70641388D01*
X70989018Y-70646157D01*
X70969603Y-70649037D01*
X70950000Y-70650000D01*
X69750000Y-70650000D01*
X69730397Y-70649037D01*
X69710982Y-70646157D01*
X69691943Y-70641388D01*
X69673463Y-70634776D01*
X69655721Y-70626384D01*
X69638886Y-70616294D01*
X69623121Y-70604602D01*
X69608579Y-70591421D01*
X69595398Y-70576879D01*
X69583706Y-70561114D01*
X69573616Y-70544279D01*
X69565224Y-70526537D01*
X69558612Y-70508057D01*
X69553843Y-70489018D01*
X69550963Y-70469603D01*
X69550000Y-70450000D01*
X69550000Y-70050000D01*
X69550963Y-70030397D01*
X69553843Y-70010982D01*
X69558612Y-69991943D01*
X69565224Y-69973463D01*
X69573616Y-69955721D01*
X69583706Y-69938886D01*
X69595398Y-69923121D01*
X69608579Y-69908579D01*
X69623121Y-69895398D01*
X69638886Y-69883706D01*
X69655721Y-69873616D01*
X69673463Y-69865224D01*
X69691943Y-69858612D01*
X69710982Y-69853843D01*
X69730397Y-69850963D01*
X69750000Y-69850000D01*
X70950000Y-69850000D01*
X70969603Y-69850963D01*
G37*
G36*
X70969603Y-71100963D02*
G01*
X70989018Y-71103843D01*
X71008057Y-71108612D01*
X71026537Y-71115224D01*
X71044279Y-71123616D01*
X71061114Y-71133706D01*
X71076879Y-71145398D01*
X71091421Y-71158579D01*
X71104602Y-71173121D01*
X71116294Y-71188886D01*
X71126384Y-71205721D01*
X71134776Y-71223463D01*
X71141388Y-71241943D01*
X71146157Y-71260982D01*
X71149037Y-71280397D01*
X71150000Y-71300000D01*
X71150000Y-71700000D01*
X71149037Y-71719603D01*
X71146157Y-71739018D01*
X71141388Y-71758057D01*
X71134776Y-71776537D01*
X71126384Y-71794279D01*
X71116294Y-71811114D01*
X71104602Y-71826879D01*
X71091421Y-71841421D01*
X71076879Y-71854602D01*
X71061114Y-71866294D01*
X71044279Y-71876384D01*
X71026537Y-71884776D01*
X71008057Y-71891388D01*
X70989018Y-71896157D01*
X70969603Y-71899037D01*
X70950000Y-71900000D01*
X69750000Y-71900000D01*
X69730397Y-71899037D01*
X69710982Y-71896157D01*
X69691943Y-71891388D01*
X69673463Y-71884776D01*
X69655721Y-71876384D01*
X69638886Y-71866294D01*
X69623121Y-71854602D01*
X69608579Y-71841421D01*
X69595398Y-71826879D01*
X69583706Y-71811114D01*
X69573616Y-71794279D01*
X69565224Y-71776537D01*
X69558612Y-71758057D01*
X69553843Y-71739018D01*
X69550963Y-71719603D01*
X69550000Y-71700000D01*
X69550000Y-71300000D01*
X69550963Y-71280397D01*
X69553843Y-71260982D01*
X69558612Y-71241943D01*
X69565224Y-71223463D01*
X69573616Y-71205721D01*
X69583706Y-71188886D01*
X69595398Y-71173121D01*
X69608579Y-71158579D01*
X69623121Y-71145398D01*
X69638886Y-71133706D01*
X69655721Y-71123616D01*
X69673463Y-71115224D01*
X69691943Y-71108612D01*
X69710982Y-71103843D01*
X69730397Y-71100963D01*
X69750000Y-71100000D01*
X70950000Y-71100000D01*
X70969603Y-71100963D01*
G37*
G36*
X74524504Y-65401204D02*
G01*
X74548773Y-65404804D01*
X74572571Y-65410765D01*
X74595671Y-65419030D01*
X74617849Y-65429520D01*
X74638893Y-65442133D01*
X74658598Y-65456747D01*
X74676777Y-65473223D01*
X74693253Y-65491402D01*
X74707867Y-65511107D01*
X74720480Y-65532151D01*
X74730970Y-65554329D01*
X74739235Y-65577429D01*
X74745196Y-65601227D01*
X74748796Y-65625496D01*
X74750000Y-65650000D01*
X74750000Y-67250000D01*
X74748796Y-67274504D01*
X74745196Y-67298773D01*
X74739235Y-67322571D01*
X74730970Y-67345671D01*
X74720480Y-67367849D01*
X74707867Y-67388893D01*
X74693253Y-67408598D01*
X74676777Y-67426777D01*
X74658598Y-67443253D01*
X74638893Y-67457867D01*
X74617849Y-67470480D01*
X74595671Y-67480970D01*
X74572571Y-67489235D01*
X74548773Y-67495196D01*
X74524504Y-67498796D01*
X74500000Y-67500000D01*
X72000000Y-67500000D01*
X71975496Y-67498796D01*
X71951227Y-67495196D01*
X71927429Y-67489235D01*
X71904329Y-67480970D01*
X71882151Y-67470480D01*
X71861107Y-67457867D01*
X71841402Y-67443253D01*
X71823223Y-67426777D01*
X71806747Y-67408598D01*
X71792133Y-67388893D01*
X71779520Y-67367849D01*
X71769030Y-67345671D01*
X71760765Y-67322571D01*
X71754804Y-67298773D01*
X71751204Y-67274504D01*
X71750000Y-67250000D01*
X71750000Y-65650000D01*
X71751204Y-65625496D01*
X71754804Y-65601227D01*
X71760765Y-65577429D01*
X71769030Y-65554329D01*
X71779520Y-65532151D01*
X71792133Y-65511107D01*
X71806747Y-65491402D01*
X71823223Y-65473223D01*
X71841402Y-65456747D01*
X71861107Y-65442133D01*
X71882151Y-65429520D01*
X71904329Y-65419030D01*
X71927429Y-65410765D01*
X71951227Y-65404804D01*
X71975496Y-65401204D01*
X72000000Y-65400000D01*
X74500000Y-65400000D01*
X74524504Y-65401204D01*
G37*
G36*
X74524504Y-73001204D02*
G01*
X74548773Y-73004804D01*
X74572571Y-73010765D01*
X74595671Y-73019030D01*
X74617849Y-73029520D01*
X74638893Y-73042133D01*
X74658598Y-73056747D01*
X74676777Y-73073223D01*
X74693253Y-73091402D01*
X74707867Y-73111107D01*
X74720480Y-73132151D01*
X74730970Y-73154329D01*
X74739235Y-73177429D01*
X74745196Y-73201227D01*
X74748796Y-73225496D01*
X74750000Y-73250000D01*
X74750000Y-74850000D01*
X74748796Y-74874504D01*
X74745196Y-74898773D01*
X74739235Y-74922571D01*
X74730970Y-74945671D01*
X74720480Y-74967849D01*
X74707867Y-74988893D01*
X74693253Y-75008598D01*
X74676777Y-75026777D01*
X74658598Y-75043253D01*
X74638893Y-75057867D01*
X74617849Y-75070480D01*
X74595671Y-75080970D01*
X74572571Y-75089235D01*
X74548773Y-75095196D01*
X74524504Y-75098796D01*
X74500000Y-75100000D01*
X72000000Y-75100000D01*
X71975496Y-75098796D01*
X71951227Y-75095196D01*
X71927429Y-75089235D01*
X71904329Y-75080970D01*
X71882151Y-75070480D01*
X71861107Y-75057867D01*
X71841402Y-75043253D01*
X71823223Y-75026777D01*
X71806747Y-75008598D01*
X71792133Y-74988893D01*
X71779520Y-74967849D01*
X71769030Y-74945671D01*
X71760765Y-74922571D01*
X71754804Y-74898773D01*
X71751204Y-74874504D01*
X71750000Y-74850000D01*
X71750000Y-73250000D01*
X71751204Y-73225496D01*
X71754804Y-73201227D01*
X71760765Y-73177429D01*
X71769030Y-73154329D01*
X71779520Y-73132151D01*
X71792133Y-73111107D01*
X71806747Y-73091402D01*
X71823223Y-73073223D01*
X71841402Y-73056747D01*
X71861107Y-73042133D01*
X71882151Y-73029520D01*
X71904329Y-73019030D01*
X71927429Y-73010765D01*
X71951227Y-73004804D01*
X71975496Y-73001204D01*
X72000000Y-73000000D01*
X74500000Y-73000000D01*
X74524504Y-73001204D01*
G37*
G36*
X53519603Y-74100963D02*
G01*
X53539018Y-74103843D01*
X53558057Y-74108612D01*
X53576537Y-74115224D01*
X53594279Y-74123616D01*
X53611114Y-74133706D01*
X53626879Y-74145398D01*
X53641421Y-74158579D01*
X53654602Y-74173121D01*
X53666294Y-74188886D01*
X53676384Y-74205721D01*
X53684776Y-74223463D01*
X53691388Y-74241943D01*
X53696157Y-74260982D01*
X53699037Y-74280397D01*
X53700000Y-74300000D01*
X53700000Y-74700000D01*
X53699037Y-74719603D01*
X53696157Y-74739018D01*
X53691388Y-74758057D01*
X53684776Y-74776537D01*
X53676384Y-74794279D01*
X53666294Y-74811114D01*
X53654602Y-74826879D01*
X53641421Y-74841421D01*
X53626879Y-74854602D01*
X53611114Y-74866294D01*
X53594279Y-74876384D01*
X53576537Y-74884776D01*
X53558057Y-74891388D01*
X53539018Y-74896157D01*
X53519603Y-74899037D01*
X53500000Y-74900000D01*
X52300000Y-74900000D01*
X52280397Y-74899037D01*
X52260982Y-74896157D01*
X52241943Y-74891388D01*
X52223463Y-74884776D01*
X52205721Y-74876384D01*
X52188886Y-74866294D01*
X52173121Y-74854602D01*
X52158579Y-74841421D01*
X52145398Y-74826879D01*
X52133706Y-74811114D01*
X52123616Y-74794279D01*
X52115224Y-74776537D01*
X52108612Y-74758057D01*
X52103843Y-74739018D01*
X52100963Y-74719603D01*
X52100000Y-74700000D01*
X52100000Y-74300000D01*
X52100963Y-74280397D01*
X52103843Y-74260982D01*
X52108612Y-74241943D01*
X52115224Y-74223463D01*
X52123616Y-74205721D01*
X52133706Y-74188886D01*
X52145398Y-74173121D01*
X52158579Y-74158579D01*
X52173121Y-74145398D01*
X52188886Y-74133706D01*
X52205721Y-74123616D01*
X52223463Y-74115224D01*
X52241943Y-74108612D01*
X52260982Y-74103843D01*
X52280397Y-74100963D01*
X52300000Y-74100000D01*
X53500000Y-74100000D01*
X53519603Y-74100963D01*
G37*
G36*
X53519603Y-72850963D02*
G01*
X53539018Y-72853843D01*
X53558057Y-72858612D01*
X53576537Y-72865224D01*
X53594279Y-72873616D01*
X53611114Y-72883706D01*
X53626879Y-72895398D01*
X53641421Y-72908579D01*
X53654602Y-72923121D01*
X53666294Y-72938886D01*
X53676384Y-72955721D01*
X53684776Y-72973463D01*
X53691388Y-72991943D01*
X53696157Y-73010982D01*
X53699037Y-73030397D01*
X53700000Y-73050000D01*
X53700000Y-73450000D01*
X53699037Y-73469603D01*
X53696157Y-73489018D01*
X53691388Y-73508057D01*
X53684776Y-73526537D01*
X53676384Y-73544279D01*
X53666294Y-73561114D01*
X53654602Y-73576879D01*
X53641421Y-73591421D01*
X53626879Y-73604602D01*
X53611114Y-73616294D01*
X53594279Y-73626384D01*
X53576537Y-73634776D01*
X53558057Y-73641388D01*
X53539018Y-73646157D01*
X53519603Y-73649037D01*
X53500000Y-73650000D01*
X52300000Y-73650000D01*
X52280397Y-73649037D01*
X52260982Y-73646157D01*
X52241943Y-73641388D01*
X52223463Y-73634776D01*
X52205721Y-73626384D01*
X52188886Y-73616294D01*
X52173121Y-73604602D01*
X52158579Y-73591421D01*
X52145398Y-73576879D01*
X52133706Y-73561114D01*
X52123616Y-73544279D01*
X52115224Y-73526537D01*
X52108612Y-73508057D01*
X52103843Y-73489018D01*
X52100963Y-73469603D01*
X52100000Y-73450000D01*
X52100000Y-73050000D01*
X52100963Y-73030397D01*
X52103843Y-73010982D01*
X52108612Y-72991943D01*
X52115224Y-72973463D01*
X52123616Y-72955721D01*
X52133706Y-72938886D01*
X52145398Y-72923121D01*
X52158579Y-72908579D01*
X52173121Y-72895398D01*
X52188886Y-72883706D01*
X52205721Y-72873616D01*
X52223463Y-72865224D01*
X52241943Y-72858612D01*
X52260982Y-72853843D01*
X52280397Y-72850963D01*
X52300000Y-72850000D01*
X53500000Y-72850000D01*
X53519603Y-72850963D01*
G37*
G36*
X53519603Y-71600963D02*
G01*
X53539018Y-71603843D01*
X53558057Y-71608612D01*
X53576537Y-71615224D01*
X53594279Y-71623616D01*
X53611114Y-71633706D01*
X53626879Y-71645398D01*
X53641421Y-71658579D01*
X53654602Y-71673121D01*
X53666294Y-71688886D01*
X53676384Y-71705721D01*
X53684776Y-71723463D01*
X53691388Y-71741943D01*
X53696157Y-71760982D01*
X53699037Y-71780397D01*
X53700000Y-71800000D01*
X53700000Y-72200000D01*
X53699037Y-72219603D01*
X53696157Y-72239018D01*
X53691388Y-72258057D01*
X53684776Y-72276537D01*
X53676384Y-72294279D01*
X53666294Y-72311114D01*
X53654602Y-72326879D01*
X53641421Y-72341421D01*
X53626879Y-72354602D01*
X53611114Y-72366294D01*
X53594279Y-72376384D01*
X53576537Y-72384776D01*
X53558057Y-72391388D01*
X53539018Y-72396157D01*
X53519603Y-72399037D01*
X53500000Y-72400000D01*
X52300000Y-72400000D01*
X52280397Y-72399037D01*
X52260982Y-72396157D01*
X52241943Y-72391388D01*
X52223463Y-72384776D01*
X52205721Y-72376384D01*
X52188886Y-72366294D01*
X52173121Y-72354602D01*
X52158579Y-72341421D01*
X52145398Y-72326879D01*
X52133706Y-72311114D01*
X52123616Y-72294279D01*
X52115224Y-72276537D01*
X52108612Y-72258057D01*
X52103843Y-72239018D01*
X52100963Y-72219603D01*
X52100000Y-72200000D01*
X52100000Y-71800000D01*
X52100963Y-71780397D01*
X52103843Y-71760982D01*
X52108612Y-71741943D01*
X52115224Y-71723463D01*
X52123616Y-71705721D01*
X52133706Y-71688886D01*
X52145398Y-71673121D01*
X52158579Y-71658579D01*
X52173121Y-71645398D01*
X52188886Y-71633706D01*
X52205721Y-71623616D01*
X52223463Y-71615224D01*
X52241943Y-71608612D01*
X52260982Y-71603843D01*
X52280397Y-71600963D01*
X52300000Y-71600000D01*
X53500000Y-71600000D01*
X53519603Y-71600963D01*
G37*
G36*
X53519603Y-70350963D02*
G01*
X53539018Y-70353843D01*
X53558057Y-70358612D01*
X53576537Y-70365224D01*
X53594279Y-70373616D01*
X53611114Y-70383706D01*
X53626879Y-70395398D01*
X53641421Y-70408579D01*
X53654602Y-70423121D01*
X53666294Y-70438886D01*
X53676384Y-70455721D01*
X53684776Y-70473463D01*
X53691388Y-70491943D01*
X53696157Y-70510982D01*
X53699037Y-70530397D01*
X53700000Y-70550000D01*
X53700000Y-70950000D01*
X53699037Y-70969603D01*
X53696157Y-70989018D01*
X53691388Y-71008057D01*
X53684776Y-71026537D01*
X53676384Y-71044279D01*
X53666294Y-71061114D01*
X53654602Y-71076879D01*
X53641421Y-71091421D01*
X53626879Y-71104602D01*
X53611114Y-71116294D01*
X53594279Y-71126384D01*
X53576537Y-71134776D01*
X53558057Y-71141388D01*
X53539018Y-71146157D01*
X53519603Y-71149037D01*
X53500000Y-71150000D01*
X52300000Y-71150000D01*
X52280397Y-71149037D01*
X52260982Y-71146157D01*
X52241943Y-71141388D01*
X52223463Y-71134776D01*
X52205721Y-71126384D01*
X52188886Y-71116294D01*
X52173121Y-71104602D01*
X52158579Y-71091421D01*
X52145398Y-71076879D01*
X52133706Y-71061114D01*
X52123616Y-71044279D01*
X52115224Y-71026537D01*
X52108612Y-71008057D01*
X52103843Y-70989018D01*
X52100963Y-70969603D01*
X52100000Y-70950000D01*
X52100000Y-70550000D01*
X52100963Y-70530397D01*
X52103843Y-70510982D01*
X52108612Y-70491943D01*
X52115224Y-70473463D01*
X52123616Y-70455721D01*
X52133706Y-70438886D01*
X52145398Y-70423121D01*
X52158579Y-70408579D01*
X52173121Y-70395398D01*
X52188886Y-70383706D01*
X52205721Y-70373616D01*
X52223463Y-70365224D01*
X52241943Y-70358612D01*
X52260982Y-70353843D01*
X52280397Y-70350963D01*
X52300000Y-70350000D01*
X53500000Y-70350000D01*
X53519603Y-70350963D01*
G37*
G36*
X53519603Y-69100963D02*
G01*
X53539018Y-69103843D01*
X53558057Y-69108612D01*
X53576537Y-69115224D01*
X53594279Y-69123616D01*
X53611114Y-69133706D01*
X53626879Y-69145398D01*
X53641421Y-69158579D01*
X53654602Y-69173121D01*
X53666294Y-69188886D01*
X53676384Y-69205721D01*
X53684776Y-69223463D01*
X53691388Y-69241943D01*
X53696157Y-69260982D01*
X53699037Y-69280397D01*
X53700000Y-69300000D01*
X53700000Y-69700000D01*
X53699037Y-69719603D01*
X53696157Y-69739018D01*
X53691388Y-69758057D01*
X53684776Y-69776537D01*
X53676384Y-69794279D01*
X53666294Y-69811114D01*
X53654602Y-69826879D01*
X53641421Y-69841421D01*
X53626879Y-69854602D01*
X53611114Y-69866294D01*
X53594279Y-69876384D01*
X53576537Y-69884776D01*
X53558057Y-69891388D01*
X53539018Y-69896157D01*
X53519603Y-69899037D01*
X53500000Y-69900000D01*
X52300000Y-69900000D01*
X52280397Y-69899037D01*
X52260982Y-69896157D01*
X52241943Y-69891388D01*
X52223463Y-69884776D01*
X52205721Y-69876384D01*
X52188886Y-69866294D01*
X52173121Y-69854602D01*
X52158579Y-69841421D01*
X52145398Y-69826879D01*
X52133706Y-69811114D01*
X52123616Y-69794279D01*
X52115224Y-69776537D01*
X52108612Y-69758057D01*
X52103843Y-69739018D01*
X52100963Y-69719603D01*
X52100000Y-69700000D01*
X52100000Y-69300000D01*
X52100963Y-69280397D01*
X52103843Y-69260982D01*
X52108612Y-69241943D01*
X52115224Y-69223463D01*
X52123616Y-69205721D01*
X52133706Y-69188886D01*
X52145398Y-69173121D01*
X52158579Y-69158579D01*
X52173121Y-69145398D01*
X52188886Y-69133706D01*
X52205721Y-69123616D01*
X52223463Y-69115224D01*
X52241943Y-69108612D01*
X52260982Y-69103843D01*
X52280397Y-69100963D01*
X52300000Y-69100000D01*
X53500000Y-69100000D01*
X53519603Y-69100963D01*
G37*
G36*
X51274504Y-76001204D02*
G01*
X51298773Y-76004804D01*
X51322571Y-76010765D01*
X51345671Y-76019030D01*
X51367849Y-76029520D01*
X51388893Y-76042133D01*
X51408598Y-76056747D01*
X51426777Y-76073223D01*
X51443253Y-76091402D01*
X51457867Y-76111107D01*
X51470480Y-76132151D01*
X51480970Y-76154329D01*
X51489235Y-76177429D01*
X51495196Y-76201227D01*
X51498796Y-76225496D01*
X51500000Y-76250000D01*
X51500000Y-77850000D01*
X51498796Y-77874504D01*
X51495196Y-77898773D01*
X51489235Y-77922571D01*
X51480970Y-77945671D01*
X51470480Y-77967849D01*
X51457867Y-77988893D01*
X51443253Y-78008598D01*
X51426777Y-78026777D01*
X51408598Y-78043253D01*
X51388893Y-78057867D01*
X51367849Y-78070480D01*
X51345671Y-78080970D01*
X51322571Y-78089235D01*
X51298773Y-78095196D01*
X51274504Y-78098796D01*
X51250000Y-78100000D01*
X48750000Y-78100000D01*
X48725496Y-78098796D01*
X48701227Y-78095196D01*
X48677429Y-78089235D01*
X48654329Y-78080970D01*
X48632151Y-78070480D01*
X48611107Y-78057867D01*
X48591402Y-78043253D01*
X48573223Y-78026777D01*
X48556747Y-78008598D01*
X48542133Y-77988893D01*
X48529520Y-77967849D01*
X48519030Y-77945671D01*
X48510765Y-77922571D01*
X48504804Y-77898773D01*
X48501204Y-77874504D01*
X48500000Y-77850000D01*
X48500000Y-76250000D01*
X48501204Y-76225496D01*
X48504804Y-76201227D01*
X48510765Y-76177429D01*
X48519030Y-76154329D01*
X48529520Y-76132151D01*
X48542133Y-76111107D01*
X48556747Y-76091402D01*
X48573223Y-76073223D01*
X48591402Y-76056747D01*
X48611107Y-76042133D01*
X48632151Y-76029520D01*
X48654329Y-76019030D01*
X48677429Y-76010765D01*
X48701227Y-76004804D01*
X48725496Y-76001204D01*
X48750000Y-76000000D01*
X51250000Y-76000000D01*
X51274504Y-76001204D01*
G37*
G36*
X51274504Y-65901204D02*
G01*
X51298773Y-65904804D01*
X51322571Y-65910765D01*
X51345671Y-65919030D01*
X51367849Y-65929520D01*
X51388893Y-65942133D01*
X51408598Y-65956747D01*
X51426777Y-65973223D01*
X51443253Y-65991402D01*
X51457867Y-66011107D01*
X51470480Y-66032151D01*
X51480970Y-66054329D01*
X51489235Y-66077429D01*
X51495196Y-66101227D01*
X51498796Y-66125496D01*
X51500000Y-66150000D01*
X51500000Y-67750000D01*
X51498796Y-67774504D01*
X51495196Y-67798773D01*
X51489235Y-67822571D01*
X51480970Y-67845671D01*
X51470480Y-67867849D01*
X51457867Y-67888893D01*
X51443253Y-67908598D01*
X51426777Y-67926777D01*
X51408598Y-67943253D01*
X51388893Y-67957867D01*
X51367849Y-67970480D01*
X51345671Y-67980970D01*
X51322571Y-67989235D01*
X51298773Y-67995196D01*
X51274504Y-67998796D01*
X51250000Y-68000000D01*
X48750000Y-68000000D01*
X48725496Y-67998796D01*
X48701227Y-67995196D01*
X48677429Y-67989235D01*
X48654329Y-67980970D01*
X48632151Y-67970480D01*
X48611107Y-67957867D01*
X48591402Y-67943253D01*
X48573223Y-67926777D01*
X48556747Y-67908598D01*
X48542133Y-67888893D01*
X48529520Y-67867849D01*
X48519030Y-67845671D01*
X48510765Y-67822571D01*
X48504804Y-67798773D01*
X48501204Y-67774504D01*
X48500000Y-67750000D01*
X48500000Y-66150000D01*
X48501204Y-66125496D01*
X48504804Y-66101227D01*
X48510765Y-66077429D01*
X48519030Y-66054329D01*
X48529520Y-66032151D01*
X48542133Y-66011107D01*
X48556747Y-65991402D01*
X48573223Y-65973223D01*
X48591402Y-65956747D01*
X48611107Y-65942133D01*
X48632151Y-65929520D01*
X48654329Y-65919030D01*
X48677429Y-65910765D01*
X48701227Y-65904804D01*
X48725496Y-65901204D01*
X48750000Y-65900000D01*
X51250000Y-65900000D01*
X51274504Y-65901204D01*
G37*
M02*
