G04 #@! TF.GenerationSoftware,KiCad,Pcbnew,(5.1.5)-3*
G04 #@! TF.CreationDate,2020-03-19T11:30:28+02:00*
G04 #@! TF.ProjectId,RightPanel,52696768-7450-4616-9e65-6c2e6b696361,rev?*
G04 #@! TF.SameCoordinates,Original*
G04 #@! TF.FileFunction,Legend,Top*
G04 #@! TF.FilePolarity,Positive*
%FSLAX46Y46*%
G04 Gerber Fmt 4.6, Leading zero omitted, Abs format (unit mm)*
G04 Created by KiCad (PCBNEW (5.1.5)-3) date 2020-03-19 11:30:28*
%MOMM*%
%LPD*%
G04 APERTURE LIST*
%ADD10C,0.200000*%
%ADD11C,0.100000*%
%ADD12C,0.254000*%
G04 APERTURE END LIST*
D10*
X85300000Y-60175000D02*
G75*
G03X85100000Y-60175000I-100000J0D01*
G01*
X85100000Y-60175000D02*
G75*
G03X85300000Y-60175000I100000J0D01*
G01*
X85100000Y-60175000D02*
X85100000Y-60175000D01*
X85300000Y-60175000D02*
X85300000Y-60175000D01*
D11*
X87000000Y-56875000D02*
X88000000Y-56875000D01*
X87000000Y-44875000D02*
X88000000Y-44865000D01*
X93500000Y-56870000D02*
X92000000Y-56870000D01*
X93500000Y-44865000D02*
X93500000Y-56870000D01*
X92000000Y-44875000D02*
X93500000Y-44865000D01*
X81500000Y-56875000D02*
X83000000Y-56875000D01*
X81500000Y-44865000D02*
X81500000Y-56875000D01*
X83000000Y-44865000D02*
X81500000Y-44865000D01*
D10*
X60550000Y-86175000D02*
G75*
G03X60350000Y-86175000I-100000J0D01*
G01*
X60350000Y-86175000D02*
G75*
G03X60550000Y-86175000I100000J0D01*
G01*
X60350000Y-86175000D02*
X60350000Y-86175000D01*
X60550000Y-86175000D02*
X60550000Y-86175000D01*
D11*
X62250000Y-82875000D02*
X63250000Y-82875000D01*
X62250000Y-70875000D02*
X63250000Y-70865000D01*
X68750000Y-82870000D02*
X67250000Y-82870000D01*
X68750000Y-70865000D02*
X68750000Y-82870000D01*
X67250000Y-70875000D02*
X68750000Y-70865000D01*
X56750000Y-82875000D02*
X58250000Y-82875000D01*
X56750000Y-70865000D02*
X56750000Y-82875000D01*
X58250000Y-70865000D02*
X56750000Y-70865000D01*
D12*
X88014047Y-53118333D02*
X88074523Y-52936904D01*
X88074523Y-52634523D01*
X88014047Y-52513571D01*
X87953571Y-52453095D01*
X87832619Y-52392619D01*
X87711666Y-52392619D01*
X87590714Y-52453095D01*
X87530238Y-52513571D01*
X87469761Y-52634523D01*
X87409285Y-52876428D01*
X87348809Y-52997380D01*
X87288333Y-53057857D01*
X87167380Y-53118333D01*
X87046428Y-53118333D01*
X86925476Y-53057857D01*
X86865000Y-52997380D01*
X86804523Y-52876428D01*
X86804523Y-52574047D01*
X86865000Y-52392619D01*
X86804523Y-51969285D02*
X88074523Y-51666904D01*
X87167380Y-51425000D01*
X88074523Y-51183095D01*
X86804523Y-50880714D01*
X88074523Y-49731666D02*
X88074523Y-50457380D01*
X88074523Y-50094523D02*
X86804523Y-50094523D01*
X86985952Y-50215476D01*
X87106904Y-50336428D01*
X87167380Y-50457380D01*
X63264047Y-79118333D02*
X63324523Y-78936904D01*
X63324523Y-78634523D01*
X63264047Y-78513571D01*
X63203571Y-78453095D01*
X63082619Y-78392619D01*
X62961666Y-78392619D01*
X62840714Y-78453095D01*
X62780238Y-78513571D01*
X62719761Y-78634523D01*
X62659285Y-78876428D01*
X62598809Y-78997380D01*
X62538333Y-79057857D01*
X62417380Y-79118333D01*
X62296428Y-79118333D01*
X62175476Y-79057857D01*
X62115000Y-78997380D01*
X62054523Y-78876428D01*
X62054523Y-78574047D01*
X62115000Y-78392619D01*
X62054523Y-77969285D02*
X63324523Y-77666904D01*
X62417380Y-77425000D01*
X63324523Y-77183095D01*
X62054523Y-76880714D01*
X62175476Y-76457380D02*
X62115000Y-76396904D01*
X62054523Y-76275952D01*
X62054523Y-75973571D01*
X62115000Y-75852619D01*
X62175476Y-75792142D01*
X62296428Y-75731666D01*
X62417380Y-75731666D01*
X62598809Y-75792142D01*
X63324523Y-76517857D01*
X63324523Y-75731666D01*
M02*
